G04 #@! TF.GenerationSoftware,KiCad,Pcbnew,5.0.1+dfsg1-3*
G04 #@! TF.CreationDate,2018-12-18T12:42:31-03:00*
G04 #@! TF.ProjectId,Control-Temp-Dysplay,436F6E74726F6C2D54656D702D447973,rev?*
G04 #@! TF.SameCoordinates,Original*
G04 #@! TF.FileFunction,Copper,L1,Top,Signal*
G04 #@! TF.FilePolarity,Positive*
%FSLAX46Y46*%
G04 Gerber Fmt 4.6, Leading zero omitted, Abs format (unit mm)*
G04 Created by KiCad (PCBNEW 5.0.1+dfsg1-3) date mar 18 dic 2018 12:42:31 -03*
%MOMM*%
%LPD*%
G01*
G04 APERTURE LIST*
G04 #@! TA.AperFunction,ComponentPad*
%ADD10C,1.600000*%
G04 #@! TD*
G04 #@! TA.AperFunction,ComponentPad*
%ADD11O,1.600000X1.600000*%
G04 #@! TD*
G04 #@! TA.AperFunction,ComponentPad*
%ADD12R,1.200000X1.200000*%
G04 #@! TD*
G04 #@! TA.AperFunction,ComponentPad*
%ADD13C,1.200000*%
G04 #@! TD*
G04 #@! TA.AperFunction,ComponentPad*
%ADD14C,1.500000*%
G04 #@! TD*
G04 #@! TA.AperFunction,ComponentPad*
%ADD15R,1.500000X1.500000*%
G04 #@! TD*
G04 #@! TA.AperFunction,ComponentPad*
%ADD16R,1.700000X1.700000*%
G04 #@! TD*
G04 #@! TA.AperFunction,ComponentPad*
%ADD17O,1.700000X1.700000*%
G04 #@! TD*
G04 #@! TA.AperFunction,ComponentPad*
%ADD18R,1.600000X1.600000*%
G04 #@! TD*
G04 #@! TA.AperFunction,ViaPad*
%ADD19C,3.500000*%
G04 #@! TD*
G04 #@! TA.AperFunction,ViaPad*
%ADD20C,0.800000*%
G04 #@! TD*
G04 #@! TA.AperFunction,Conductor*
%ADD21C,0.300000*%
G04 #@! TD*
G04 APERTURE END LIST*
D10*
G04 #@! TO.P,10nF1,1*
G04 #@! TO.N,VCC*
X101050000Y-48625000D03*
D11*
G04 #@! TO.P,10nF1,2*
G04 #@! TO.N,GND*
X101050000Y-56125000D03*
G04 #@! TD*
D12*
G04 #@! TO.P,10uF1,1*
G04 #@! TO.N,VCC*
X45925000Y-51000000D03*
D13*
G04 #@! TO.P,10uF1,2*
G04 #@! TO.N,GND*
X45925000Y-52500000D03*
G04 #@! TD*
D14*
G04 #@! TO.P,DISP1,12*
G04 #@! TO.N,D3*
X130000000Y-44760000D03*
G04 #@! TO.P,DISP1,11*
G04 #@! TO.N,A*
X132540000Y-44760000D03*
G04 #@! TO.P,DISP1,10*
G04 #@! TO.N,F*
X135080000Y-44760000D03*
G04 #@! TO.P,DISP1,9*
G04 #@! TO.N,D2*
X137620000Y-44760000D03*
G04 #@! TO.P,DISP1,8*
G04 #@! TO.N,D1*
X140160000Y-44760000D03*
G04 #@! TO.P,DISP1,7*
G04 #@! TO.N,B*
X142700000Y-44760000D03*
G04 #@! TO.P,DISP1,6*
G04 #@! TO.N,D0*
X142700000Y-60000000D03*
G04 #@! TO.P,DISP1,5*
G04 #@! TO.N,G*
X140160000Y-60000000D03*
G04 #@! TO.P,DISP1,4*
G04 #@! TO.N,C*
X137620000Y-60000000D03*
G04 #@! TO.P,DISP1,3*
G04 #@! TO.N,DP*
X135080000Y-60000000D03*
G04 #@! TO.P,DISP1,2*
G04 #@! TO.N,D*
X132540000Y-60000000D03*
D15*
G04 #@! TO.P,DISP1,1*
G04 #@! TO.N,E*
X130000000Y-60000000D03*
G04 #@! TD*
G04 #@! TO.P,DISP2,1*
G04 #@! TO.N,E*
X59000000Y-60000000D03*
D14*
G04 #@! TO.P,DISP2,2*
G04 #@! TO.N,D*
X61540000Y-60000000D03*
G04 #@! TO.P,DISP2,3*
G04 #@! TO.N,DP*
X64080000Y-60000000D03*
G04 #@! TO.P,DISP2,4*
G04 #@! TO.N,C*
X66620000Y-60000000D03*
G04 #@! TO.P,DISP2,5*
G04 #@! TO.N,G*
X69160000Y-60000000D03*
G04 #@! TO.P,DISP2,6*
G04 #@! TO.N,D4*
X71700000Y-60000000D03*
G04 #@! TO.P,DISP2,7*
G04 #@! TO.N,B*
X71700000Y-44760000D03*
G04 #@! TO.P,DISP2,8*
G04 #@! TO.N,D5*
X69160000Y-44760000D03*
G04 #@! TO.P,DISP2,9*
G04 #@! TO.N,D6*
X66620000Y-44760000D03*
G04 #@! TO.P,DISP2,10*
G04 #@! TO.N,F*
X64080000Y-44760000D03*
G04 #@! TO.P,DISP2,11*
G04 #@! TO.N,A*
X61540000Y-44760000D03*
G04 #@! TO.P,DISP2,12*
G04 #@! TO.N,D7*
X59000000Y-44760000D03*
G04 #@! TD*
D16*
G04 #@! TO.P,J1,1*
G04 #@! TO.N,GND*
X33575000Y-56700000D03*
D17*
G04 #@! TO.P,J1,2*
G04 #@! TO.N,CLK*
X33575000Y-54160000D03*
G04 #@! TO.P,J1,3*
G04 #@! TO.N,LOAD*
X33575000Y-51620000D03*
G04 #@! TO.P,J1,4*
G04 #@! TO.N,DIN*
X33575000Y-49080000D03*
G04 #@! TO.P,J1,5*
G04 #@! TO.N,VCC*
X33575000Y-46540000D03*
G04 #@! TD*
G04 #@! TO.P,J2,5*
G04 #@! TO.N,VCC*
X171475000Y-48290000D03*
G04 #@! TO.P,J2,4*
G04 #@! TO.N,DOUT*
X171475000Y-50830000D03*
G04 #@! TO.P,J2,3*
G04 #@! TO.N,LOAD*
X171475000Y-53370000D03*
G04 #@! TO.P,J2,2*
G04 #@! TO.N,CLK*
X171475000Y-55910000D03*
D16*
G04 #@! TO.P,J2,1*
G04 #@! TO.N,GND*
X171475000Y-58450000D03*
G04 #@! TD*
D10*
G04 #@! TO.P,R1,1*
G04 #@! TO.N,Net-(R1-Pad1)*
X158975000Y-44775000D03*
D11*
G04 #@! TO.P,R1,2*
G04 #@! TO.N,VCC*
X158975000Y-60015000D03*
G04 #@! TD*
D18*
G04 #@! TO.P,U1,1*
G04 #@! TO.N,DIN*
X123150000Y-48800000D03*
D11*
G04 #@! TO.P,U1,13*
G04 #@! TO.N,CLK*
X151090000Y-56420000D03*
G04 #@! TO.P,U1,2*
G04 #@! TO.N,D0*
X125690000Y-48800000D03*
G04 #@! TO.P,U1,14*
G04 #@! TO.N,A*
X148550000Y-56420000D03*
G04 #@! TO.P,U1,3*
G04 #@! TO.N,D4*
X128230000Y-48800000D03*
G04 #@! TO.P,U1,15*
G04 #@! TO.N,F*
X146010000Y-56420000D03*
G04 #@! TO.P,U1,4*
G04 #@! TO.N,GND*
X130770000Y-48800000D03*
G04 #@! TO.P,U1,16*
G04 #@! TO.N,B*
X143470000Y-56420000D03*
G04 #@! TO.P,U1,5*
G04 #@! TO.N,D6*
X133310000Y-48800000D03*
G04 #@! TO.P,U1,17*
G04 #@! TO.N,G*
X140930000Y-56420000D03*
G04 #@! TO.P,U1,6*
G04 #@! TO.N,D2*
X135850000Y-48800000D03*
G04 #@! TO.P,U1,18*
G04 #@! TO.N,Net-(R1-Pad1)*
X138390000Y-56420000D03*
G04 #@! TO.P,U1,7*
G04 #@! TO.N,D3*
X138390000Y-48800000D03*
G04 #@! TO.P,U1,19*
G04 #@! TO.N,VCC*
X135850000Y-56420000D03*
G04 #@! TO.P,U1,8*
G04 #@! TO.N,D7*
X140930000Y-48800000D03*
G04 #@! TO.P,U1,20*
G04 #@! TO.N,C*
X133310000Y-56420000D03*
G04 #@! TO.P,U1,9*
G04 #@! TO.N,GND*
X143470000Y-48800000D03*
G04 #@! TO.P,U1,21*
G04 #@! TO.N,E*
X130770000Y-56420000D03*
G04 #@! TO.P,U1,10*
G04 #@! TO.N,D5*
X146010000Y-48800000D03*
G04 #@! TO.P,U1,22*
G04 #@! TO.N,DP*
X128230000Y-56420000D03*
G04 #@! TO.P,U1,11*
G04 #@! TO.N,D1*
X148550000Y-48800000D03*
G04 #@! TO.P,U1,23*
G04 #@! TO.N,D*
X125690000Y-56420000D03*
G04 #@! TO.P,U1,12*
G04 #@! TO.N,LOAD*
X151090000Y-48800000D03*
G04 #@! TO.P,U1,24*
G04 #@! TO.N,DOUT*
X123150000Y-56420000D03*
G04 #@! TD*
D19*
G04 #@! TO.N,*
X173990000Y-63500000D03*
D20*
G04 #@! TO.N,VCC*
X165485000Y-48290000D03*
X131500000Y-61725000D03*
G04 #@! TO.N,D3*
X134150000Y-46225000D03*
G04 #@! TO.N,A*
X136900000Y-41100000D03*
X133250000Y-41125000D03*
G04 #@! TO.N,F*
X146750000Y-53400000D03*
G04 #@! TO.N,B*
X140100000Y-42675000D03*
X127175000Y-41050000D03*
G04 #@! TO.N,D0*
X131550000Y-52625000D03*
X144525000Y-53025000D03*
G04 #@! TO.N,C*
X66575000Y-63350000D03*
G04 #@! TO.N,DP*
X118950000Y-56700000D03*
X128000000Y-60025000D03*
G04 #@! TO.N,D*
X120425000Y-57975000D03*
G04 #@! TO.N,E*
X125900000Y-60100000D03*
G04 #@! TO.N,D4*
X76900000Y-47200000D03*
G04 #@! TO.N,D5*
X131275000Y-41150000D03*
G04 #@! TO.N,D7*
X127450000Y-45275000D03*
G04 #@! TO.N,LOAD*
X132200000Y-53950000D03*
X116975000Y-53225000D03*
G04 #@! TO.N,DIN*
X117025000Y-51300000D03*
G04 #@! TO.N,DOUT*
X119875000Y-51825000D03*
X149525000Y-53450000D03*
G04 #@! TO.N,Net-(R1-Pad1)*
X153625000Y-64250000D03*
X138850000Y-62075000D03*
G04 #@! TD*
D21*
G04 #@! TO.N,VCC*
X165485000Y-48290000D02*
X165485000Y-58965000D01*
X165485000Y-58965000D02*
X164425000Y-60025000D01*
X164415000Y-60015000D02*
X158975000Y-60015000D01*
X164425000Y-60025000D02*
X164415000Y-60015000D01*
X45925000Y-51000000D02*
X45925000Y-47925000D01*
X44540000Y-46540000D02*
X33575000Y-46540000D01*
X45925000Y-47925000D02*
X44540000Y-46540000D01*
X46625000Y-48625000D02*
X101050000Y-48625000D01*
X45925000Y-47925000D02*
X46625000Y-48625000D01*
X118585001Y-49424999D02*
X124400000Y-55239998D01*
X101050000Y-48625000D02*
X101849999Y-49424999D01*
X101849999Y-49424999D02*
X118585001Y-49424999D01*
X124400000Y-55239998D02*
X124400000Y-60350000D01*
X124400000Y-60350000D02*
X125575000Y-61525000D01*
X125575000Y-61525000D02*
X131300000Y-61525000D01*
X131300000Y-61525000D02*
X131500000Y-61725000D01*
G04 #@! TO.N,D3*
X138390000Y-47668630D02*
X136946370Y-46225000D01*
X138390000Y-48800000D02*
X138390000Y-47668630D01*
X136946370Y-46225000D02*
X134150000Y-46225000D01*
G04 #@! TO.N,A*
X132540000Y-41835000D02*
X132540000Y-44760000D01*
X133250000Y-41125000D02*
X132540000Y-41835000D01*
X145949999Y-53819999D02*
X145949999Y-53260003D01*
X143800000Y-41100000D02*
X137465685Y-41100000D01*
X148550000Y-56420000D02*
X145949999Y-53819999D01*
X145949999Y-53260003D02*
X144750000Y-52060004D01*
X144750000Y-52060004D02*
X144750000Y-42050000D01*
X137465685Y-41100000D02*
X136900000Y-41100000D01*
X144750000Y-42050000D02*
X143800000Y-41100000D01*
G04 #@! TO.N,F*
X135080000Y-44760000D02*
X135080000Y-43699340D01*
X130880660Y-39350000D02*
X130805660Y-39425000D01*
X64829999Y-44010001D02*
X64829999Y-43120001D01*
X64080000Y-44760000D02*
X64829999Y-44010001D01*
X64829999Y-43120001D02*
X65375000Y-42575000D01*
X65375000Y-42575000D02*
X102600000Y-42575000D01*
X102600000Y-42575000D02*
X102675000Y-42500000D01*
X102675000Y-42500000D02*
X115375000Y-42500000D01*
X118325000Y-39550000D02*
X135080000Y-39550000D01*
X115375000Y-42500000D02*
X118325000Y-39550000D01*
X135080000Y-44760000D02*
X135080000Y-39550000D01*
X147225000Y-39550000D02*
X147249997Y-39574997D01*
X147249997Y-39574997D02*
X147249997Y-52900003D01*
X147149999Y-53000001D02*
X146750000Y-53400000D01*
X135080000Y-39550000D02*
X147225000Y-39550000D01*
X147249997Y-52900003D02*
X147149999Y-53000001D01*
G04 #@! TO.N,D2*
X135850000Y-51275000D02*
X135850000Y-48800000D01*
X137620000Y-44760000D02*
X138369999Y-45509999D01*
X138369999Y-45509999D02*
X138369999Y-45844999D01*
X138369999Y-45844999D02*
X139625000Y-47100000D01*
X139625000Y-47100000D02*
X139625000Y-50300000D01*
X139625000Y-50300000D02*
X138225000Y-51700000D01*
X136275000Y-51700000D02*
X135850000Y-51275000D01*
X138225000Y-51700000D02*
X136275000Y-51700000D01*
G04 #@! TO.N,B*
X143470000Y-51145000D02*
X143470000Y-56420000D01*
X142700000Y-45820660D02*
X142150000Y-46370660D01*
X142700000Y-44760000D02*
X142700000Y-45820660D01*
X142175000Y-48225000D02*
X142175000Y-49850000D01*
X142150000Y-46370660D02*
X142150000Y-48200000D01*
X142150000Y-48200000D02*
X142175000Y-48225000D01*
X142175000Y-49850000D02*
X143470000Y-51145000D01*
X142700000Y-44760000D02*
X140615000Y-42675000D01*
X140615000Y-42675000D02*
X140100000Y-42675000D01*
X126609315Y-41050000D02*
X126584315Y-41025000D01*
X127175000Y-41050000D02*
X126609315Y-41050000D01*
X126584315Y-41025000D02*
X121500000Y-41025000D01*
X121500000Y-41025000D02*
X117750000Y-44775000D01*
X117735000Y-44760000D02*
X71700000Y-44760000D01*
X117750000Y-44775000D02*
X117735000Y-44760000D01*
G04 #@! TO.N,D0*
X125690000Y-48800000D02*
X125690000Y-51465000D01*
X125690000Y-51465000D02*
X126675000Y-52450000D01*
X126675000Y-52450000D02*
X131375000Y-52450000D01*
X131375000Y-52450000D02*
X131550000Y-52625000D01*
X144525000Y-53590685D02*
X144675000Y-53740685D01*
X144750000Y-59550000D02*
X144300000Y-60000000D01*
X144525000Y-53025000D02*
X144525000Y-53590685D01*
X144675000Y-53740685D02*
X144675000Y-53775000D01*
X144300000Y-60000000D02*
X142700000Y-60000000D01*
X144675000Y-53775000D02*
X144750000Y-53850000D01*
X144750000Y-53850000D02*
X144750000Y-59550000D01*
G04 #@! TO.N,G*
X140930000Y-56420000D02*
X140930000Y-56620000D01*
X140160000Y-57390000D02*
X140160000Y-60000000D01*
X140930000Y-56620000D02*
X140160000Y-57390000D01*
X140160000Y-62435000D02*
X140160000Y-60000000D01*
X140200000Y-62475000D02*
X140160000Y-62435000D01*
X71025000Y-62950000D02*
X139725000Y-62950000D01*
X139725000Y-62950000D02*
X140200000Y-62475000D01*
X69160000Y-60000000D02*
X69160000Y-61085000D01*
X69160000Y-61085000D02*
X71025000Y-62950000D01*
G04 #@! TO.N,C*
X137620000Y-61580000D02*
X137620000Y-60000000D01*
X133310000Y-56420000D02*
X133310000Y-57551370D01*
X133825000Y-58066370D02*
X133825000Y-61325000D01*
X133310000Y-57551370D02*
X133825000Y-58066370D01*
X133825000Y-61325000D02*
X134725000Y-62225000D01*
X134725000Y-62225000D02*
X136975000Y-62225000D01*
X136975000Y-62225000D02*
X137620000Y-61580000D01*
X66575000Y-60045000D02*
X66620000Y-60000000D01*
X66575000Y-63350000D02*
X66575000Y-60045000D01*
G04 #@! TO.N,DP*
X65050000Y-57825000D02*
X64080000Y-58795000D01*
X104850000Y-57825000D02*
X65050000Y-57825000D01*
X64080000Y-58795000D02*
X64080000Y-60000000D01*
X105499999Y-57175001D02*
X104850000Y-57825000D01*
X118950000Y-56700000D02*
X118474999Y-57175001D01*
X118474999Y-57175001D02*
X105499999Y-57175001D01*
X128230000Y-57551370D02*
X128000000Y-57781370D01*
X128000000Y-57781370D02*
X128000000Y-60025000D01*
X128230000Y-56420000D02*
X128230000Y-57551370D01*
G04 #@! TO.N,D*
X67065000Y-54475000D02*
X61540000Y-60000000D01*
X104450000Y-54475000D02*
X67065000Y-54475000D01*
X104849999Y-54874999D02*
X104450000Y-54475000D01*
X119449999Y-54874999D02*
X104849999Y-54874999D01*
X120425000Y-57975000D02*
X120425000Y-55850000D01*
X120425000Y-55850000D02*
X119449999Y-54874999D01*
G04 #@! TO.N,E*
X130770000Y-56420000D02*
X130770000Y-57905000D01*
X130000000Y-58675000D02*
X130000000Y-60000000D01*
X130770000Y-57905000D02*
X130000000Y-58675000D01*
X130770000Y-55288630D02*
X130081370Y-54600000D01*
X130770000Y-56420000D02*
X130770000Y-55288630D01*
X130081370Y-54600000D02*
X127800000Y-54600000D01*
X127800000Y-54600000D02*
X126975000Y-55425000D01*
X126975000Y-55425000D02*
X126975000Y-59025000D01*
X126975000Y-59025000D02*
X125900000Y-60100000D01*
G04 #@! TO.N,D4*
X128230000Y-47668630D02*
X127725000Y-47163630D01*
X128230000Y-48800000D02*
X128230000Y-47668630D01*
X127725000Y-47163630D02*
X127725000Y-47150000D01*
X127725000Y-47150000D02*
X127375000Y-46800000D01*
X127375000Y-46800000D02*
X125325000Y-46800000D01*
X125325000Y-46800000D02*
X124425000Y-47700000D01*
X124425000Y-47700000D02*
X124425000Y-49850000D01*
X124425000Y-49850000D02*
X124425000Y-50850000D01*
X124425000Y-50850000D02*
X123875000Y-51400000D01*
X123875000Y-51400000D02*
X122525000Y-51400000D01*
X122525000Y-51400000D02*
X118325000Y-47200000D01*
X118325000Y-47200000D02*
X76900000Y-47200000D01*
G04 #@! TO.N,D5*
X69160000Y-46535000D02*
X69160000Y-44760000D01*
X69875000Y-47250000D02*
X69160000Y-46535000D01*
X120250000Y-45600000D02*
X74250000Y-45600000D01*
X129025000Y-41150000D02*
X127475000Y-42700000D01*
X131275000Y-41150000D02*
X129025000Y-41150000D01*
X72600000Y-47250000D02*
X72200000Y-47250000D01*
X127475000Y-42700000D02*
X123150000Y-42700000D01*
X74250000Y-45600000D02*
X72600000Y-47250000D01*
X72200000Y-47250000D02*
X69875000Y-47250000D01*
X123150000Y-42700000D02*
X120250000Y-45600000D01*
G04 #@! TO.N,D6*
X67369999Y-45509999D02*
X67369999Y-46469999D01*
X66620000Y-44760000D02*
X67369999Y-45509999D01*
X67369999Y-46469999D02*
X68850000Y-47950000D01*
X68850000Y-47950000D02*
X73700000Y-47950000D01*
X73700000Y-47950000D02*
X75350000Y-46300000D01*
X81600000Y-46300000D02*
X81725000Y-46425000D01*
X75350000Y-46300000D02*
X81600000Y-46300000D01*
X123250010Y-46299990D02*
X123675000Y-45875000D01*
X81850010Y-46299990D02*
X123250010Y-46299990D01*
X81725000Y-46425000D02*
X81850010Y-46299990D01*
X123675000Y-45875000D02*
X123275000Y-46275000D01*
X131735000Y-47225000D02*
X130450000Y-47225000D01*
X133310000Y-48800000D02*
X131735000Y-47225000D01*
X130450000Y-47225000D02*
X128425000Y-45200000D01*
X125450000Y-44100000D02*
X123675000Y-45875000D01*
X128425000Y-45200000D02*
X128425000Y-44550000D01*
X128425000Y-44550000D02*
X127975000Y-44100000D01*
X127975000Y-44100000D02*
X125450000Y-44100000D01*
G04 #@! TO.N,D7*
X140930000Y-49931370D02*
X140900000Y-49961370D01*
X140930000Y-48800000D02*
X140930000Y-49931370D01*
X140900000Y-49961370D02*
X140900000Y-51250000D01*
X140900000Y-51250000D02*
X139250000Y-52900000D01*
X139250000Y-52900000D02*
X134075000Y-52900000D01*
X134075000Y-52900000D02*
X132550000Y-51375000D01*
X132550000Y-51375000D02*
X130150000Y-51375000D01*
X130150000Y-51375000D02*
X129500000Y-50725000D01*
X129500000Y-50725000D02*
X129500000Y-47325000D01*
X129500000Y-47325000D02*
X127450000Y-45275000D01*
G04 #@! TO.N,CLK*
X36535000Y-54160000D02*
X33575000Y-54160000D01*
X69825000Y-65200000D02*
X67875000Y-63250000D01*
X149875000Y-65200000D02*
X69825000Y-65200000D01*
X37000000Y-54625000D02*
X36535000Y-54160000D01*
X151075000Y-64000000D02*
X149875000Y-65200000D01*
X67875000Y-59025000D02*
X67325000Y-58475000D01*
X63050000Y-63575000D02*
X42990000Y-63575000D01*
X151075000Y-57566370D02*
X151075000Y-64000000D01*
X151090000Y-56420000D02*
X151090000Y-57551370D01*
X151090000Y-57551370D02*
X151075000Y-57566370D01*
X67875000Y-63250000D02*
X67875000Y-59025000D01*
X42990000Y-63575000D02*
X37000000Y-57585000D01*
X67325000Y-58475000D02*
X65850000Y-58475000D01*
X65350000Y-58975000D02*
X65350000Y-61275000D01*
X65350000Y-61275000D02*
X63050000Y-63575000D01*
X65850000Y-58475000D02*
X65350000Y-58975000D01*
X37000000Y-57585000D02*
X37000000Y-54625000D01*
X149875000Y-65200000D02*
X165975000Y-65200000D01*
X165975000Y-65200000D02*
X168525000Y-62650000D01*
X168525000Y-62650000D02*
X168525000Y-56100000D01*
X168715000Y-55910000D02*
X171475000Y-55910000D01*
X168525000Y-56100000D02*
X168715000Y-55910000D01*
G04 #@! TO.N,LOAD*
X116409315Y-53225000D02*
X116384315Y-53250000D01*
X116975000Y-53225000D02*
X116409315Y-53225000D01*
X116384315Y-53250000D02*
X61200000Y-53250000D01*
X61200000Y-53250000D02*
X55325000Y-59125000D01*
X55325000Y-59125000D02*
X42550000Y-59125000D01*
X42550000Y-59125000D02*
X38675000Y-55250000D01*
X38675000Y-55250000D02*
X38675000Y-53075000D01*
X37220000Y-51620000D02*
X33575000Y-51620000D01*
X38675000Y-53075000D02*
X37220000Y-51620000D01*
X148850000Y-62525000D02*
X142450000Y-62525000D01*
X142450000Y-62525000D02*
X141425000Y-61500000D01*
X149800000Y-55310004D02*
X149800000Y-61575000D01*
X132765685Y-53950000D02*
X132200000Y-53950000D01*
X148224998Y-53735002D02*
X149800000Y-55310004D01*
X142200000Y-54725000D02*
X141425000Y-53950000D01*
X149800000Y-61575000D02*
X148850000Y-62525000D01*
X148224998Y-51665002D02*
X148224998Y-53735002D01*
X142200000Y-58000000D02*
X142200000Y-54725000D01*
X151090000Y-48800000D02*
X148224998Y-51665002D01*
X141425000Y-53950000D02*
X132765685Y-53950000D01*
X141425000Y-58775000D02*
X142200000Y-58000000D01*
X141425000Y-61500000D02*
X141425000Y-58775000D01*
G04 #@! TO.N,DIN*
X117025000Y-51300000D02*
X55900000Y-51300000D01*
X55900000Y-51300000D02*
X50000000Y-57200000D01*
X50000000Y-57200000D02*
X45625000Y-57200000D01*
X45625000Y-57200000D02*
X41425000Y-53000000D01*
X41425000Y-53000000D02*
X41425000Y-51950000D01*
X38555000Y-49080000D02*
X33575000Y-49080000D01*
X41425000Y-51950000D02*
X38555000Y-49080000D01*
G04 #@! TO.N,DOUT*
X121075000Y-54345000D02*
X123150000Y-56420000D01*
X119875000Y-53145000D02*
X121075000Y-54345000D01*
X119875000Y-51825000D02*
X119875000Y-53145000D01*
X155600000Y-45100000D02*
X155600000Y-47375000D01*
X163170000Y-42525000D02*
X158175000Y-42525000D01*
X158175000Y-42525000D02*
X155600000Y-45100000D01*
X155600000Y-47375000D02*
X149924999Y-53050001D01*
X149924999Y-53050001D02*
X149525000Y-53450000D01*
X171475000Y-50830000D02*
X163170000Y-42525000D01*
G04 #@! TO.N,Net-(R1-Pad1)*
X158175001Y-45574999D02*
X158150001Y-45574999D01*
X158975000Y-44775000D02*
X158175001Y-45574999D01*
X156500000Y-47225000D02*
X156500000Y-61375000D01*
X158150001Y-45574999D02*
X156500000Y-47225000D01*
X156500000Y-61375000D02*
X153625000Y-64250000D01*
X138850000Y-61509315D02*
X138900000Y-61459315D01*
X138850000Y-62075000D02*
X138850000Y-61509315D01*
X138900000Y-61459315D02*
X138900000Y-59150000D01*
X138390000Y-58640000D02*
X138390000Y-56420000D01*
X138900000Y-59150000D02*
X138390000Y-58640000D01*
G04 #@! TD*
M02*
