G04 #@! TF.GenerationSoftware,KiCad,Pcbnew,5.0.1+dfsg1-3*
G04 #@! TF.CreationDate,2018-12-18T12:42:31-03:00*
G04 #@! TF.ProjectId,Control-Temp-Dysplay,436F6E74726F6C2D54656D702D447973,rev?*
G04 #@! TF.SameCoordinates,Original*
G04 #@! TF.FileFunction,Soldermask,Top*
G04 #@! TF.FilePolarity,Negative*
%FSLAX46Y46*%
G04 Gerber Fmt 4.6, Leading zero omitted, Abs format (unit mm)*
G04 Created by KiCad (PCBNEW 5.0.1+dfsg1-3) date mar 18 dic 2018 12:42:31 -03*
%MOMM*%
%LPD*%
G01*
G04 APERTURE LIST*
%ADD10C,0.100000*%
G04 APERTURE END LIST*
D10*
G36*
X159141821Y-59176313D02*
X159141824Y-59176314D01*
X159141825Y-59176314D01*
X159302239Y-59224975D01*
X159302241Y-59224976D01*
X159302244Y-59224977D01*
X159450078Y-59303995D01*
X159579659Y-59410341D01*
X159686005Y-59539922D01*
X159765023Y-59687756D01*
X159765024Y-59687759D01*
X159765025Y-59687761D01*
X159813686Y-59848175D01*
X159813687Y-59848179D01*
X159830117Y-60015000D01*
X159813687Y-60181821D01*
X159765023Y-60342244D01*
X159686005Y-60490078D01*
X159579659Y-60619659D01*
X159450078Y-60726005D01*
X159302244Y-60805023D01*
X159302241Y-60805024D01*
X159302239Y-60805025D01*
X159141825Y-60853686D01*
X159141824Y-60853686D01*
X159141821Y-60853687D01*
X159016804Y-60866000D01*
X158933196Y-60866000D01*
X158808179Y-60853687D01*
X158808176Y-60853686D01*
X158808175Y-60853686D01*
X158647761Y-60805025D01*
X158647759Y-60805024D01*
X158647756Y-60805023D01*
X158499922Y-60726005D01*
X158370341Y-60619659D01*
X158263995Y-60490078D01*
X158184977Y-60342244D01*
X158136313Y-60181821D01*
X158119883Y-60015000D01*
X158136313Y-59848179D01*
X158136314Y-59848175D01*
X158184975Y-59687761D01*
X158184976Y-59687759D01*
X158184977Y-59687756D01*
X158263995Y-59539922D01*
X158370341Y-59410341D01*
X158499922Y-59303995D01*
X158647756Y-59224977D01*
X158647759Y-59224976D01*
X158647761Y-59224975D01*
X158808175Y-59176314D01*
X158808176Y-59176314D01*
X158808179Y-59176313D01*
X158933196Y-59164000D01*
X159016804Y-59164000D01*
X159141821Y-59176313D01*
X159141821Y-59176313D01*
G37*
G36*
X142933643Y-59229781D02*
X143079415Y-59290162D01*
X143210611Y-59377824D01*
X143322176Y-59489389D01*
X143409838Y-59620585D01*
X143470219Y-59766357D01*
X143501000Y-59921107D01*
X143501000Y-60078893D01*
X143470219Y-60233643D01*
X143409838Y-60379415D01*
X143322176Y-60510611D01*
X143210611Y-60622176D01*
X143079415Y-60709838D01*
X142933643Y-60770219D01*
X142778893Y-60801000D01*
X142621107Y-60801000D01*
X142466357Y-60770219D01*
X142320585Y-60709838D01*
X142189389Y-60622176D01*
X142077824Y-60510611D01*
X141990162Y-60379415D01*
X141929781Y-60233643D01*
X141899000Y-60078893D01*
X141899000Y-59921107D01*
X141929781Y-59766357D01*
X141990162Y-59620585D01*
X142077824Y-59489389D01*
X142189389Y-59377824D01*
X142320585Y-59290162D01*
X142466357Y-59229781D01*
X142621107Y-59199000D01*
X142778893Y-59199000D01*
X142933643Y-59229781D01*
X142933643Y-59229781D01*
G37*
G36*
X71933643Y-59229781D02*
X72079415Y-59290162D01*
X72210611Y-59377824D01*
X72322176Y-59489389D01*
X72409838Y-59620585D01*
X72470219Y-59766357D01*
X72501000Y-59921107D01*
X72501000Y-60078893D01*
X72470219Y-60233643D01*
X72409838Y-60379415D01*
X72322176Y-60510611D01*
X72210611Y-60622176D01*
X72079415Y-60709838D01*
X71933643Y-60770219D01*
X71778893Y-60801000D01*
X71621107Y-60801000D01*
X71466357Y-60770219D01*
X71320585Y-60709838D01*
X71189389Y-60622176D01*
X71077824Y-60510611D01*
X70990162Y-60379415D01*
X70929781Y-60233643D01*
X70899000Y-60078893D01*
X70899000Y-59921107D01*
X70929781Y-59766357D01*
X70990162Y-59620585D01*
X71077824Y-59489389D01*
X71189389Y-59377824D01*
X71320585Y-59290162D01*
X71466357Y-59229781D01*
X71621107Y-59199000D01*
X71778893Y-59199000D01*
X71933643Y-59229781D01*
X71933643Y-59229781D01*
G37*
G36*
X69393643Y-59229781D02*
X69539415Y-59290162D01*
X69670611Y-59377824D01*
X69782176Y-59489389D01*
X69869838Y-59620585D01*
X69930219Y-59766357D01*
X69961000Y-59921107D01*
X69961000Y-60078893D01*
X69930219Y-60233643D01*
X69869838Y-60379415D01*
X69782176Y-60510611D01*
X69670611Y-60622176D01*
X69539415Y-60709838D01*
X69393643Y-60770219D01*
X69238893Y-60801000D01*
X69081107Y-60801000D01*
X68926357Y-60770219D01*
X68780585Y-60709838D01*
X68649389Y-60622176D01*
X68537824Y-60510611D01*
X68450162Y-60379415D01*
X68389781Y-60233643D01*
X68359000Y-60078893D01*
X68359000Y-59921107D01*
X68389781Y-59766357D01*
X68450162Y-59620585D01*
X68537824Y-59489389D01*
X68649389Y-59377824D01*
X68780585Y-59290162D01*
X68926357Y-59229781D01*
X69081107Y-59199000D01*
X69238893Y-59199000D01*
X69393643Y-59229781D01*
X69393643Y-59229781D01*
G37*
G36*
X66853643Y-59229781D02*
X66999415Y-59290162D01*
X67130611Y-59377824D01*
X67242176Y-59489389D01*
X67329838Y-59620585D01*
X67390219Y-59766357D01*
X67421000Y-59921107D01*
X67421000Y-60078893D01*
X67390219Y-60233643D01*
X67329838Y-60379415D01*
X67242176Y-60510611D01*
X67130611Y-60622176D01*
X66999415Y-60709838D01*
X66853643Y-60770219D01*
X66698893Y-60801000D01*
X66541107Y-60801000D01*
X66386357Y-60770219D01*
X66240585Y-60709838D01*
X66109389Y-60622176D01*
X65997824Y-60510611D01*
X65910162Y-60379415D01*
X65849781Y-60233643D01*
X65819000Y-60078893D01*
X65819000Y-59921107D01*
X65849781Y-59766357D01*
X65910162Y-59620585D01*
X65997824Y-59489389D01*
X66109389Y-59377824D01*
X66240585Y-59290162D01*
X66386357Y-59229781D01*
X66541107Y-59199000D01*
X66698893Y-59199000D01*
X66853643Y-59229781D01*
X66853643Y-59229781D01*
G37*
G36*
X64313643Y-59229781D02*
X64459415Y-59290162D01*
X64590611Y-59377824D01*
X64702176Y-59489389D01*
X64789838Y-59620585D01*
X64850219Y-59766357D01*
X64881000Y-59921107D01*
X64881000Y-60078893D01*
X64850219Y-60233643D01*
X64789838Y-60379415D01*
X64702176Y-60510611D01*
X64590611Y-60622176D01*
X64459415Y-60709838D01*
X64313643Y-60770219D01*
X64158893Y-60801000D01*
X64001107Y-60801000D01*
X63846357Y-60770219D01*
X63700585Y-60709838D01*
X63569389Y-60622176D01*
X63457824Y-60510611D01*
X63370162Y-60379415D01*
X63309781Y-60233643D01*
X63279000Y-60078893D01*
X63279000Y-59921107D01*
X63309781Y-59766357D01*
X63370162Y-59620585D01*
X63457824Y-59489389D01*
X63569389Y-59377824D01*
X63700585Y-59290162D01*
X63846357Y-59229781D01*
X64001107Y-59199000D01*
X64158893Y-59199000D01*
X64313643Y-59229781D01*
X64313643Y-59229781D01*
G37*
G36*
X61773643Y-59229781D02*
X61919415Y-59290162D01*
X62050611Y-59377824D01*
X62162176Y-59489389D01*
X62249838Y-59620585D01*
X62310219Y-59766357D01*
X62341000Y-59921107D01*
X62341000Y-60078893D01*
X62310219Y-60233643D01*
X62249838Y-60379415D01*
X62162176Y-60510611D01*
X62050611Y-60622176D01*
X61919415Y-60709838D01*
X61773643Y-60770219D01*
X61618893Y-60801000D01*
X61461107Y-60801000D01*
X61306357Y-60770219D01*
X61160585Y-60709838D01*
X61029389Y-60622176D01*
X60917824Y-60510611D01*
X60830162Y-60379415D01*
X60769781Y-60233643D01*
X60739000Y-60078893D01*
X60739000Y-59921107D01*
X60769781Y-59766357D01*
X60830162Y-59620585D01*
X60917824Y-59489389D01*
X61029389Y-59377824D01*
X61160585Y-59290162D01*
X61306357Y-59229781D01*
X61461107Y-59199000D01*
X61618893Y-59199000D01*
X61773643Y-59229781D01*
X61773643Y-59229781D01*
G37*
G36*
X130801000Y-60801000D02*
X129199000Y-60801000D01*
X129199000Y-59199000D01*
X130801000Y-59199000D01*
X130801000Y-60801000D01*
X130801000Y-60801000D01*
G37*
G36*
X132773643Y-59229781D02*
X132919415Y-59290162D01*
X133050611Y-59377824D01*
X133162176Y-59489389D01*
X133249838Y-59620585D01*
X133310219Y-59766357D01*
X133341000Y-59921107D01*
X133341000Y-60078893D01*
X133310219Y-60233643D01*
X133249838Y-60379415D01*
X133162176Y-60510611D01*
X133050611Y-60622176D01*
X132919415Y-60709838D01*
X132773643Y-60770219D01*
X132618893Y-60801000D01*
X132461107Y-60801000D01*
X132306357Y-60770219D01*
X132160585Y-60709838D01*
X132029389Y-60622176D01*
X131917824Y-60510611D01*
X131830162Y-60379415D01*
X131769781Y-60233643D01*
X131739000Y-60078893D01*
X131739000Y-59921107D01*
X131769781Y-59766357D01*
X131830162Y-59620585D01*
X131917824Y-59489389D01*
X132029389Y-59377824D01*
X132160585Y-59290162D01*
X132306357Y-59229781D01*
X132461107Y-59199000D01*
X132618893Y-59199000D01*
X132773643Y-59229781D01*
X132773643Y-59229781D01*
G37*
G36*
X135313643Y-59229781D02*
X135459415Y-59290162D01*
X135590611Y-59377824D01*
X135702176Y-59489389D01*
X135789838Y-59620585D01*
X135850219Y-59766357D01*
X135881000Y-59921107D01*
X135881000Y-60078893D01*
X135850219Y-60233643D01*
X135789838Y-60379415D01*
X135702176Y-60510611D01*
X135590611Y-60622176D01*
X135459415Y-60709838D01*
X135313643Y-60770219D01*
X135158893Y-60801000D01*
X135001107Y-60801000D01*
X134846357Y-60770219D01*
X134700585Y-60709838D01*
X134569389Y-60622176D01*
X134457824Y-60510611D01*
X134370162Y-60379415D01*
X134309781Y-60233643D01*
X134279000Y-60078893D01*
X134279000Y-59921107D01*
X134309781Y-59766357D01*
X134370162Y-59620585D01*
X134457824Y-59489389D01*
X134569389Y-59377824D01*
X134700585Y-59290162D01*
X134846357Y-59229781D01*
X135001107Y-59199000D01*
X135158893Y-59199000D01*
X135313643Y-59229781D01*
X135313643Y-59229781D01*
G37*
G36*
X137853643Y-59229781D02*
X137999415Y-59290162D01*
X138130611Y-59377824D01*
X138242176Y-59489389D01*
X138329838Y-59620585D01*
X138390219Y-59766357D01*
X138421000Y-59921107D01*
X138421000Y-60078893D01*
X138390219Y-60233643D01*
X138329838Y-60379415D01*
X138242176Y-60510611D01*
X138130611Y-60622176D01*
X137999415Y-60709838D01*
X137853643Y-60770219D01*
X137698893Y-60801000D01*
X137541107Y-60801000D01*
X137386357Y-60770219D01*
X137240585Y-60709838D01*
X137109389Y-60622176D01*
X136997824Y-60510611D01*
X136910162Y-60379415D01*
X136849781Y-60233643D01*
X136819000Y-60078893D01*
X136819000Y-59921107D01*
X136849781Y-59766357D01*
X136910162Y-59620585D01*
X136997824Y-59489389D01*
X137109389Y-59377824D01*
X137240585Y-59290162D01*
X137386357Y-59229781D01*
X137541107Y-59199000D01*
X137698893Y-59199000D01*
X137853643Y-59229781D01*
X137853643Y-59229781D01*
G37*
G36*
X140393643Y-59229781D02*
X140539415Y-59290162D01*
X140670611Y-59377824D01*
X140782176Y-59489389D01*
X140869838Y-59620585D01*
X140930219Y-59766357D01*
X140961000Y-59921107D01*
X140961000Y-60078893D01*
X140930219Y-60233643D01*
X140869838Y-60379415D01*
X140782176Y-60510611D01*
X140670611Y-60622176D01*
X140539415Y-60709838D01*
X140393643Y-60770219D01*
X140238893Y-60801000D01*
X140081107Y-60801000D01*
X139926357Y-60770219D01*
X139780585Y-60709838D01*
X139649389Y-60622176D01*
X139537824Y-60510611D01*
X139450162Y-60379415D01*
X139389781Y-60233643D01*
X139359000Y-60078893D01*
X139359000Y-59921107D01*
X139389781Y-59766357D01*
X139450162Y-59620585D01*
X139537824Y-59489389D01*
X139649389Y-59377824D01*
X139780585Y-59290162D01*
X139926357Y-59229781D01*
X140081107Y-59199000D01*
X140238893Y-59199000D01*
X140393643Y-59229781D01*
X140393643Y-59229781D01*
G37*
G36*
X59801000Y-60801000D02*
X58199000Y-60801000D01*
X58199000Y-59199000D01*
X59801000Y-59199000D01*
X59801000Y-60801000D01*
X59801000Y-60801000D01*
G37*
G36*
X172376000Y-59351000D02*
X170574000Y-59351000D01*
X170574000Y-57549000D01*
X172376000Y-57549000D01*
X172376000Y-59351000D01*
X172376000Y-59351000D01*
G37*
G36*
X34476000Y-57601000D02*
X32674000Y-57601000D01*
X32674000Y-55799000D01*
X34476000Y-55799000D01*
X34476000Y-57601000D01*
X34476000Y-57601000D01*
G37*
G36*
X143636821Y-55581313D02*
X143636824Y-55581314D01*
X143636825Y-55581314D01*
X143797239Y-55629975D01*
X143797241Y-55629976D01*
X143797244Y-55629977D01*
X143945078Y-55708995D01*
X144074659Y-55815341D01*
X144181005Y-55944922D01*
X144260023Y-56092756D01*
X144260024Y-56092759D01*
X144260025Y-56092761D01*
X144308686Y-56253175D01*
X144308687Y-56253179D01*
X144325117Y-56420000D01*
X144308687Y-56586821D01*
X144308686Y-56586824D01*
X144308686Y-56586825D01*
X144265358Y-56729659D01*
X144260023Y-56747244D01*
X144181005Y-56895078D01*
X144074659Y-57024659D01*
X143945078Y-57131005D01*
X143797244Y-57210023D01*
X143797241Y-57210024D01*
X143797239Y-57210025D01*
X143636825Y-57258686D01*
X143636824Y-57258686D01*
X143636821Y-57258687D01*
X143511804Y-57271000D01*
X143428196Y-57271000D01*
X143303179Y-57258687D01*
X143303176Y-57258686D01*
X143303175Y-57258686D01*
X143142761Y-57210025D01*
X143142759Y-57210024D01*
X143142756Y-57210023D01*
X142994922Y-57131005D01*
X142865341Y-57024659D01*
X142758995Y-56895078D01*
X142679977Y-56747244D01*
X142674643Y-56729659D01*
X142631314Y-56586825D01*
X142631314Y-56586824D01*
X142631313Y-56586821D01*
X142614883Y-56420000D01*
X142631313Y-56253179D01*
X142631314Y-56253175D01*
X142679975Y-56092761D01*
X142679976Y-56092759D01*
X142679977Y-56092756D01*
X142758995Y-55944922D01*
X142865341Y-55815341D01*
X142994922Y-55708995D01*
X143142756Y-55629977D01*
X143142759Y-55629976D01*
X143142761Y-55629975D01*
X143303175Y-55581314D01*
X143303176Y-55581314D01*
X143303179Y-55581313D01*
X143428196Y-55569000D01*
X143511804Y-55569000D01*
X143636821Y-55581313D01*
X143636821Y-55581313D01*
G37*
G36*
X125856821Y-55581313D02*
X125856824Y-55581314D01*
X125856825Y-55581314D01*
X126017239Y-55629975D01*
X126017241Y-55629976D01*
X126017244Y-55629977D01*
X126165078Y-55708995D01*
X126294659Y-55815341D01*
X126401005Y-55944922D01*
X126480023Y-56092756D01*
X126480024Y-56092759D01*
X126480025Y-56092761D01*
X126528686Y-56253175D01*
X126528687Y-56253179D01*
X126545117Y-56420000D01*
X126528687Y-56586821D01*
X126528686Y-56586824D01*
X126528686Y-56586825D01*
X126485358Y-56729659D01*
X126480023Y-56747244D01*
X126401005Y-56895078D01*
X126294659Y-57024659D01*
X126165078Y-57131005D01*
X126017244Y-57210023D01*
X126017241Y-57210024D01*
X126017239Y-57210025D01*
X125856825Y-57258686D01*
X125856824Y-57258686D01*
X125856821Y-57258687D01*
X125731804Y-57271000D01*
X125648196Y-57271000D01*
X125523179Y-57258687D01*
X125523176Y-57258686D01*
X125523175Y-57258686D01*
X125362761Y-57210025D01*
X125362759Y-57210024D01*
X125362756Y-57210023D01*
X125214922Y-57131005D01*
X125085341Y-57024659D01*
X124978995Y-56895078D01*
X124899977Y-56747244D01*
X124894643Y-56729659D01*
X124851314Y-56586825D01*
X124851314Y-56586824D01*
X124851313Y-56586821D01*
X124834883Y-56420000D01*
X124851313Y-56253179D01*
X124851314Y-56253175D01*
X124899975Y-56092761D01*
X124899976Y-56092759D01*
X124899977Y-56092756D01*
X124978995Y-55944922D01*
X125085341Y-55815341D01*
X125214922Y-55708995D01*
X125362756Y-55629977D01*
X125362759Y-55629976D01*
X125362761Y-55629975D01*
X125523175Y-55581314D01*
X125523176Y-55581314D01*
X125523179Y-55581313D01*
X125648196Y-55569000D01*
X125731804Y-55569000D01*
X125856821Y-55581313D01*
X125856821Y-55581313D01*
G37*
G36*
X128396821Y-55581313D02*
X128396824Y-55581314D01*
X128396825Y-55581314D01*
X128557239Y-55629975D01*
X128557241Y-55629976D01*
X128557244Y-55629977D01*
X128705078Y-55708995D01*
X128834659Y-55815341D01*
X128941005Y-55944922D01*
X129020023Y-56092756D01*
X129020024Y-56092759D01*
X129020025Y-56092761D01*
X129068686Y-56253175D01*
X129068687Y-56253179D01*
X129085117Y-56420000D01*
X129068687Y-56586821D01*
X129068686Y-56586824D01*
X129068686Y-56586825D01*
X129025358Y-56729659D01*
X129020023Y-56747244D01*
X128941005Y-56895078D01*
X128834659Y-57024659D01*
X128705078Y-57131005D01*
X128557244Y-57210023D01*
X128557241Y-57210024D01*
X128557239Y-57210025D01*
X128396825Y-57258686D01*
X128396824Y-57258686D01*
X128396821Y-57258687D01*
X128271804Y-57271000D01*
X128188196Y-57271000D01*
X128063179Y-57258687D01*
X128063176Y-57258686D01*
X128063175Y-57258686D01*
X127902761Y-57210025D01*
X127902759Y-57210024D01*
X127902756Y-57210023D01*
X127754922Y-57131005D01*
X127625341Y-57024659D01*
X127518995Y-56895078D01*
X127439977Y-56747244D01*
X127434643Y-56729659D01*
X127391314Y-56586825D01*
X127391314Y-56586824D01*
X127391313Y-56586821D01*
X127374883Y-56420000D01*
X127391313Y-56253179D01*
X127391314Y-56253175D01*
X127439975Y-56092761D01*
X127439976Y-56092759D01*
X127439977Y-56092756D01*
X127518995Y-55944922D01*
X127625341Y-55815341D01*
X127754922Y-55708995D01*
X127902756Y-55629977D01*
X127902759Y-55629976D01*
X127902761Y-55629975D01*
X128063175Y-55581314D01*
X128063176Y-55581314D01*
X128063179Y-55581313D01*
X128188196Y-55569000D01*
X128271804Y-55569000D01*
X128396821Y-55581313D01*
X128396821Y-55581313D01*
G37*
G36*
X130936821Y-55581313D02*
X130936824Y-55581314D01*
X130936825Y-55581314D01*
X131097239Y-55629975D01*
X131097241Y-55629976D01*
X131097244Y-55629977D01*
X131245078Y-55708995D01*
X131374659Y-55815341D01*
X131481005Y-55944922D01*
X131560023Y-56092756D01*
X131560024Y-56092759D01*
X131560025Y-56092761D01*
X131608686Y-56253175D01*
X131608687Y-56253179D01*
X131625117Y-56420000D01*
X131608687Y-56586821D01*
X131608686Y-56586824D01*
X131608686Y-56586825D01*
X131565358Y-56729659D01*
X131560023Y-56747244D01*
X131481005Y-56895078D01*
X131374659Y-57024659D01*
X131245078Y-57131005D01*
X131097244Y-57210023D01*
X131097241Y-57210024D01*
X131097239Y-57210025D01*
X130936825Y-57258686D01*
X130936824Y-57258686D01*
X130936821Y-57258687D01*
X130811804Y-57271000D01*
X130728196Y-57271000D01*
X130603179Y-57258687D01*
X130603176Y-57258686D01*
X130603175Y-57258686D01*
X130442761Y-57210025D01*
X130442759Y-57210024D01*
X130442756Y-57210023D01*
X130294922Y-57131005D01*
X130165341Y-57024659D01*
X130058995Y-56895078D01*
X129979977Y-56747244D01*
X129974643Y-56729659D01*
X129931314Y-56586825D01*
X129931314Y-56586824D01*
X129931313Y-56586821D01*
X129914883Y-56420000D01*
X129931313Y-56253179D01*
X129931314Y-56253175D01*
X129979975Y-56092761D01*
X129979976Y-56092759D01*
X129979977Y-56092756D01*
X130058995Y-55944922D01*
X130165341Y-55815341D01*
X130294922Y-55708995D01*
X130442756Y-55629977D01*
X130442759Y-55629976D01*
X130442761Y-55629975D01*
X130603175Y-55581314D01*
X130603176Y-55581314D01*
X130603179Y-55581313D01*
X130728196Y-55569000D01*
X130811804Y-55569000D01*
X130936821Y-55581313D01*
X130936821Y-55581313D01*
G37*
G36*
X133476821Y-55581313D02*
X133476824Y-55581314D01*
X133476825Y-55581314D01*
X133637239Y-55629975D01*
X133637241Y-55629976D01*
X133637244Y-55629977D01*
X133785078Y-55708995D01*
X133914659Y-55815341D01*
X134021005Y-55944922D01*
X134100023Y-56092756D01*
X134100024Y-56092759D01*
X134100025Y-56092761D01*
X134148686Y-56253175D01*
X134148687Y-56253179D01*
X134165117Y-56420000D01*
X134148687Y-56586821D01*
X134148686Y-56586824D01*
X134148686Y-56586825D01*
X134105358Y-56729659D01*
X134100023Y-56747244D01*
X134021005Y-56895078D01*
X133914659Y-57024659D01*
X133785078Y-57131005D01*
X133637244Y-57210023D01*
X133637241Y-57210024D01*
X133637239Y-57210025D01*
X133476825Y-57258686D01*
X133476824Y-57258686D01*
X133476821Y-57258687D01*
X133351804Y-57271000D01*
X133268196Y-57271000D01*
X133143179Y-57258687D01*
X133143176Y-57258686D01*
X133143175Y-57258686D01*
X132982761Y-57210025D01*
X132982759Y-57210024D01*
X132982756Y-57210023D01*
X132834922Y-57131005D01*
X132705341Y-57024659D01*
X132598995Y-56895078D01*
X132519977Y-56747244D01*
X132514643Y-56729659D01*
X132471314Y-56586825D01*
X132471314Y-56586824D01*
X132471313Y-56586821D01*
X132454883Y-56420000D01*
X132471313Y-56253179D01*
X132471314Y-56253175D01*
X132519975Y-56092761D01*
X132519976Y-56092759D01*
X132519977Y-56092756D01*
X132598995Y-55944922D01*
X132705341Y-55815341D01*
X132834922Y-55708995D01*
X132982756Y-55629977D01*
X132982759Y-55629976D01*
X132982761Y-55629975D01*
X133143175Y-55581314D01*
X133143176Y-55581314D01*
X133143179Y-55581313D01*
X133268196Y-55569000D01*
X133351804Y-55569000D01*
X133476821Y-55581313D01*
X133476821Y-55581313D01*
G37*
G36*
X136016821Y-55581313D02*
X136016824Y-55581314D01*
X136016825Y-55581314D01*
X136177239Y-55629975D01*
X136177241Y-55629976D01*
X136177244Y-55629977D01*
X136325078Y-55708995D01*
X136454659Y-55815341D01*
X136561005Y-55944922D01*
X136640023Y-56092756D01*
X136640024Y-56092759D01*
X136640025Y-56092761D01*
X136688686Y-56253175D01*
X136688687Y-56253179D01*
X136705117Y-56420000D01*
X136688687Y-56586821D01*
X136688686Y-56586824D01*
X136688686Y-56586825D01*
X136645358Y-56729659D01*
X136640023Y-56747244D01*
X136561005Y-56895078D01*
X136454659Y-57024659D01*
X136325078Y-57131005D01*
X136177244Y-57210023D01*
X136177241Y-57210024D01*
X136177239Y-57210025D01*
X136016825Y-57258686D01*
X136016824Y-57258686D01*
X136016821Y-57258687D01*
X135891804Y-57271000D01*
X135808196Y-57271000D01*
X135683179Y-57258687D01*
X135683176Y-57258686D01*
X135683175Y-57258686D01*
X135522761Y-57210025D01*
X135522759Y-57210024D01*
X135522756Y-57210023D01*
X135374922Y-57131005D01*
X135245341Y-57024659D01*
X135138995Y-56895078D01*
X135059977Y-56747244D01*
X135054643Y-56729659D01*
X135011314Y-56586825D01*
X135011314Y-56586824D01*
X135011313Y-56586821D01*
X134994883Y-56420000D01*
X135011313Y-56253179D01*
X135011314Y-56253175D01*
X135059975Y-56092761D01*
X135059976Y-56092759D01*
X135059977Y-56092756D01*
X135138995Y-55944922D01*
X135245341Y-55815341D01*
X135374922Y-55708995D01*
X135522756Y-55629977D01*
X135522759Y-55629976D01*
X135522761Y-55629975D01*
X135683175Y-55581314D01*
X135683176Y-55581314D01*
X135683179Y-55581313D01*
X135808196Y-55569000D01*
X135891804Y-55569000D01*
X136016821Y-55581313D01*
X136016821Y-55581313D01*
G37*
G36*
X138556821Y-55581313D02*
X138556824Y-55581314D01*
X138556825Y-55581314D01*
X138717239Y-55629975D01*
X138717241Y-55629976D01*
X138717244Y-55629977D01*
X138865078Y-55708995D01*
X138994659Y-55815341D01*
X139101005Y-55944922D01*
X139180023Y-56092756D01*
X139180024Y-56092759D01*
X139180025Y-56092761D01*
X139228686Y-56253175D01*
X139228687Y-56253179D01*
X139245117Y-56420000D01*
X139228687Y-56586821D01*
X139228686Y-56586824D01*
X139228686Y-56586825D01*
X139185358Y-56729659D01*
X139180023Y-56747244D01*
X139101005Y-56895078D01*
X138994659Y-57024659D01*
X138865078Y-57131005D01*
X138717244Y-57210023D01*
X138717241Y-57210024D01*
X138717239Y-57210025D01*
X138556825Y-57258686D01*
X138556824Y-57258686D01*
X138556821Y-57258687D01*
X138431804Y-57271000D01*
X138348196Y-57271000D01*
X138223179Y-57258687D01*
X138223176Y-57258686D01*
X138223175Y-57258686D01*
X138062761Y-57210025D01*
X138062759Y-57210024D01*
X138062756Y-57210023D01*
X137914922Y-57131005D01*
X137785341Y-57024659D01*
X137678995Y-56895078D01*
X137599977Y-56747244D01*
X137594643Y-56729659D01*
X137551314Y-56586825D01*
X137551314Y-56586824D01*
X137551313Y-56586821D01*
X137534883Y-56420000D01*
X137551313Y-56253179D01*
X137551314Y-56253175D01*
X137599975Y-56092761D01*
X137599976Y-56092759D01*
X137599977Y-56092756D01*
X137678995Y-55944922D01*
X137785341Y-55815341D01*
X137914922Y-55708995D01*
X138062756Y-55629977D01*
X138062759Y-55629976D01*
X138062761Y-55629975D01*
X138223175Y-55581314D01*
X138223176Y-55581314D01*
X138223179Y-55581313D01*
X138348196Y-55569000D01*
X138431804Y-55569000D01*
X138556821Y-55581313D01*
X138556821Y-55581313D01*
G37*
G36*
X141096821Y-55581313D02*
X141096824Y-55581314D01*
X141096825Y-55581314D01*
X141257239Y-55629975D01*
X141257241Y-55629976D01*
X141257244Y-55629977D01*
X141405078Y-55708995D01*
X141534659Y-55815341D01*
X141641005Y-55944922D01*
X141720023Y-56092756D01*
X141720024Y-56092759D01*
X141720025Y-56092761D01*
X141768686Y-56253175D01*
X141768687Y-56253179D01*
X141785117Y-56420000D01*
X141768687Y-56586821D01*
X141768686Y-56586824D01*
X141768686Y-56586825D01*
X141725358Y-56729659D01*
X141720023Y-56747244D01*
X141641005Y-56895078D01*
X141534659Y-57024659D01*
X141405078Y-57131005D01*
X141257244Y-57210023D01*
X141257241Y-57210024D01*
X141257239Y-57210025D01*
X141096825Y-57258686D01*
X141096824Y-57258686D01*
X141096821Y-57258687D01*
X140971804Y-57271000D01*
X140888196Y-57271000D01*
X140763179Y-57258687D01*
X140763176Y-57258686D01*
X140763175Y-57258686D01*
X140602761Y-57210025D01*
X140602759Y-57210024D01*
X140602756Y-57210023D01*
X140454922Y-57131005D01*
X140325341Y-57024659D01*
X140218995Y-56895078D01*
X140139977Y-56747244D01*
X140134643Y-56729659D01*
X140091314Y-56586825D01*
X140091314Y-56586824D01*
X140091313Y-56586821D01*
X140074883Y-56420000D01*
X140091313Y-56253179D01*
X140091314Y-56253175D01*
X140139975Y-56092761D01*
X140139976Y-56092759D01*
X140139977Y-56092756D01*
X140218995Y-55944922D01*
X140325341Y-55815341D01*
X140454922Y-55708995D01*
X140602756Y-55629977D01*
X140602759Y-55629976D01*
X140602761Y-55629975D01*
X140763175Y-55581314D01*
X140763176Y-55581314D01*
X140763179Y-55581313D01*
X140888196Y-55569000D01*
X140971804Y-55569000D01*
X141096821Y-55581313D01*
X141096821Y-55581313D01*
G37*
G36*
X146176821Y-55581313D02*
X146176824Y-55581314D01*
X146176825Y-55581314D01*
X146337239Y-55629975D01*
X146337241Y-55629976D01*
X146337244Y-55629977D01*
X146485078Y-55708995D01*
X146614659Y-55815341D01*
X146721005Y-55944922D01*
X146800023Y-56092756D01*
X146800024Y-56092759D01*
X146800025Y-56092761D01*
X146848686Y-56253175D01*
X146848687Y-56253179D01*
X146865117Y-56420000D01*
X146848687Y-56586821D01*
X146848686Y-56586824D01*
X146848686Y-56586825D01*
X146805358Y-56729659D01*
X146800023Y-56747244D01*
X146721005Y-56895078D01*
X146614659Y-57024659D01*
X146485078Y-57131005D01*
X146337244Y-57210023D01*
X146337241Y-57210024D01*
X146337239Y-57210025D01*
X146176825Y-57258686D01*
X146176824Y-57258686D01*
X146176821Y-57258687D01*
X146051804Y-57271000D01*
X145968196Y-57271000D01*
X145843179Y-57258687D01*
X145843176Y-57258686D01*
X145843175Y-57258686D01*
X145682761Y-57210025D01*
X145682759Y-57210024D01*
X145682756Y-57210023D01*
X145534922Y-57131005D01*
X145405341Y-57024659D01*
X145298995Y-56895078D01*
X145219977Y-56747244D01*
X145214643Y-56729659D01*
X145171314Y-56586825D01*
X145171314Y-56586824D01*
X145171313Y-56586821D01*
X145154883Y-56420000D01*
X145171313Y-56253179D01*
X145171314Y-56253175D01*
X145219975Y-56092761D01*
X145219976Y-56092759D01*
X145219977Y-56092756D01*
X145298995Y-55944922D01*
X145405341Y-55815341D01*
X145534922Y-55708995D01*
X145682756Y-55629977D01*
X145682759Y-55629976D01*
X145682761Y-55629975D01*
X145843175Y-55581314D01*
X145843176Y-55581314D01*
X145843179Y-55581313D01*
X145968196Y-55569000D01*
X146051804Y-55569000D01*
X146176821Y-55581313D01*
X146176821Y-55581313D01*
G37*
G36*
X148716821Y-55581313D02*
X148716824Y-55581314D01*
X148716825Y-55581314D01*
X148877239Y-55629975D01*
X148877241Y-55629976D01*
X148877244Y-55629977D01*
X149025078Y-55708995D01*
X149154659Y-55815341D01*
X149261005Y-55944922D01*
X149340023Y-56092756D01*
X149340024Y-56092759D01*
X149340025Y-56092761D01*
X149388686Y-56253175D01*
X149388687Y-56253179D01*
X149405117Y-56420000D01*
X149388687Y-56586821D01*
X149388686Y-56586824D01*
X149388686Y-56586825D01*
X149345358Y-56729659D01*
X149340023Y-56747244D01*
X149261005Y-56895078D01*
X149154659Y-57024659D01*
X149025078Y-57131005D01*
X148877244Y-57210023D01*
X148877241Y-57210024D01*
X148877239Y-57210025D01*
X148716825Y-57258686D01*
X148716824Y-57258686D01*
X148716821Y-57258687D01*
X148591804Y-57271000D01*
X148508196Y-57271000D01*
X148383179Y-57258687D01*
X148383176Y-57258686D01*
X148383175Y-57258686D01*
X148222761Y-57210025D01*
X148222759Y-57210024D01*
X148222756Y-57210023D01*
X148074922Y-57131005D01*
X147945341Y-57024659D01*
X147838995Y-56895078D01*
X147759977Y-56747244D01*
X147754643Y-56729659D01*
X147711314Y-56586825D01*
X147711314Y-56586824D01*
X147711313Y-56586821D01*
X147694883Y-56420000D01*
X147711313Y-56253179D01*
X147711314Y-56253175D01*
X147759975Y-56092761D01*
X147759976Y-56092759D01*
X147759977Y-56092756D01*
X147838995Y-55944922D01*
X147945341Y-55815341D01*
X148074922Y-55708995D01*
X148222756Y-55629977D01*
X148222759Y-55629976D01*
X148222761Y-55629975D01*
X148383175Y-55581314D01*
X148383176Y-55581314D01*
X148383179Y-55581313D01*
X148508196Y-55569000D01*
X148591804Y-55569000D01*
X148716821Y-55581313D01*
X148716821Y-55581313D01*
G37*
G36*
X151256821Y-55581313D02*
X151256824Y-55581314D01*
X151256825Y-55581314D01*
X151417239Y-55629975D01*
X151417241Y-55629976D01*
X151417244Y-55629977D01*
X151565078Y-55708995D01*
X151694659Y-55815341D01*
X151801005Y-55944922D01*
X151880023Y-56092756D01*
X151880024Y-56092759D01*
X151880025Y-56092761D01*
X151928686Y-56253175D01*
X151928687Y-56253179D01*
X151945117Y-56420000D01*
X151928687Y-56586821D01*
X151928686Y-56586824D01*
X151928686Y-56586825D01*
X151885358Y-56729659D01*
X151880023Y-56747244D01*
X151801005Y-56895078D01*
X151694659Y-57024659D01*
X151565078Y-57131005D01*
X151417244Y-57210023D01*
X151417241Y-57210024D01*
X151417239Y-57210025D01*
X151256825Y-57258686D01*
X151256824Y-57258686D01*
X151256821Y-57258687D01*
X151131804Y-57271000D01*
X151048196Y-57271000D01*
X150923179Y-57258687D01*
X150923176Y-57258686D01*
X150923175Y-57258686D01*
X150762761Y-57210025D01*
X150762759Y-57210024D01*
X150762756Y-57210023D01*
X150614922Y-57131005D01*
X150485341Y-57024659D01*
X150378995Y-56895078D01*
X150299977Y-56747244D01*
X150294643Y-56729659D01*
X150251314Y-56586825D01*
X150251314Y-56586824D01*
X150251313Y-56586821D01*
X150234883Y-56420000D01*
X150251313Y-56253179D01*
X150251314Y-56253175D01*
X150299975Y-56092761D01*
X150299976Y-56092759D01*
X150299977Y-56092756D01*
X150378995Y-55944922D01*
X150485341Y-55815341D01*
X150614922Y-55708995D01*
X150762756Y-55629977D01*
X150762759Y-55629976D01*
X150762761Y-55629975D01*
X150923175Y-55581314D01*
X150923176Y-55581314D01*
X150923179Y-55581313D01*
X151048196Y-55569000D01*
X151131804Y-55569000D01*
X151256821Y-55581313D01*
X151256821Y-55581313D01*
G37*
G36*
X123316821Y-55581313D02*
X123316824Y-55581314D01*
X123316825Y-55581314D01*
X123477239Y-55629975D01*
X123477241Y-55629976D01*
X123477244Y-55629977D01*
X123625078Y-55708995D01*
X123754659Y-55815341D01*
X123861005Y-55944922D01*
X123940023Y-56092756D01*
X123940024Y-56092759D01*
X123940025Y-56092761D01*
X123988686Y-56253175D01*
X123988687Y-56253179D01*
X124005117Y-56420000D01*
X123988687Y-56586821D01*
X123988686Y-56586824D01*
X123988686Y-56586825D01*
X123945358Y-56729659D01*
X123940023Y-56747244D01*
X123861005Y-56895078D01*
X123754659Y-57024659D01*
X123625078Y-57131005D01*
X123477244Y-57210023D01*
X123477241Y-57210024D01*
X123477239Y-57210025D01*
X123316825Y-57258686D01*
X123316824Y-57258686D01*
X123316821Y-57258687D01*
X123191804Y-57271000D01*
X123108196Y-57271000D01*
X122983179Y-57258687D01*
X122983176Y-57258686D01*
X122983175Y-57258686D01*
X122822761Y-57210025D01*
X122822759Y-57210024D01*
X122822756Y-57210023D01*
X122674922Y-57131005D01*
X122545341Y-57024659D01*
X122438995Y-56895078D01*
X122359977Y-56747244D01*
X122354643Y-56729659D01*
X122311314Y-56586825D01*
X122311314Y-56586824D01*
X122311313Y-56586821D01*
X122294883Y-56420000D01*
X122311313Y-56253179D01*
X122311314Y-56253175D01*
X122359975Y-56092761D01*
X122359976Y-56092759D01*
X122359977Y-56092756D01*
X122438995Y-55944922D01*
X122545341Y-55815341D01*
X122674922Y-55708995D01*
X122822756Y-55629977D01*
X122822759Y-55629976D01*
X122822761Y-55629975D01*
X122983175Y-55581314D01*
X122983176Y-55581314D01*
X122983179Y-55581313D01*
X123108196Y-55569000D01*
X123191804Y-55569000D01*
X123316821Y-55581313D01*
X123316821Y-55581313D01*
G37*
G36*
X101216821Y-55286313D02*
X101216824Y-55286314D01*
X101216825Y-55286314D01*
X101377239Y-55334975D01*
X101377241Y-55334976D01*
X101377244Y-55334977D01*
X101525078Y-55413995D01*
X101654659Y-55520341D01*
X101761005Y-55649922D01*
X101840023Y-55797756D01*
X101840024Y-55797759D01*
X101840025Y-55797761D01*
X101874072Y-55910000D01*
X101888687Y-55958179D01*
X101905117Y-56125000D01*
X101888687Y-56291821D01*
X101888686Y-56291824D01*
X101888686Y-56291825D01*
X101849805Y-56420000D01*
X101840023Y-56452244D01*
X101761005Y-56600078D01*
X101654659Y-56729659D01*
X101525078Y-56836005D01*
X101377244Y-56915023D01*
X101377241Y-56915024D01*
X101377239Y-56915025D01*
X101216825Y-56963686D01*
X101216824Y-56963686D01*
X101216821Y-56963687D01*
X101091804Y-56976000D01*
X101008196Y-56976000D01*
X100883179Y-56963687D01*
X100883176Y-56963686D01*
X100883175Y-56963686D01*
X100722761Y-56915025D01*
X100722759Y-56915024D01*
X100722756Y-56915023D01*
X100574922Y-56836005D01*
X100445341Y-56729659D01*
X100338995Y-56600078D01*
X100259977Y-56452244D01*
X100250196Y-56420000D01*
X100211314Y-56291825D01*
X100211314Y-56291824D01*
X100211313Y-56291821D01*
X100194883Y-56125000D01*
X100211313Y-55958179D01*
X100225928Y-55910000D01*
X100259975Y-55797761D01*
X100259976Y-55797759D01*
X100259977Y-55797756D01*
X100338995Y-55649922D01*
X100445341Y-55520341D01*
X100574922Y-55413995D01*
X100722756Y-55334977D01*
X100722759Y-55334976D01*
X100722761Y-55334975D01*
X100883175Y-55286314D01*
X100883176Y-55286314D01*
X100883179Y-55286313D01*
X101008196Y-55274000D01*
X101091804Y-55274000D01*
X101216821Y-55286313D01*
X101216821Y-55286313D01*
G37*
G36*
X171585442Y-55015518D02*
X171651627Y-55022037D01*
X171764853Y-55056384D01*
X171821467Y-55073557D01*
X171960087Y-55147652D01*
X171977991Y-55157222D01*
X172013729Y-55186552D01*
X172115186Y-55269814D01*
X172198448Y-55371271D01*
X172227778Y-55407009D01*
X172227779Y-55407011D01*
X172311443Y-55563533D01*
X172328616Y-55620147D01*
X172362963Y-55733373D01*
X172380359Y-55910000D01*
X172362963Y-56086627D01*
X172328616Y-56199853D01*
X172311443Y-56256467D01*
X172292543Y-56291825D01*
X172227778Y-56412991D01*
X172198448Y-56448729D01*
X172115186Y-56550186D01*
X172013729Y-56633448D01*
X171977991Y-56662778D01*
X171977989Y-56662779D01*
X171821467Y-56746443D01*
X171764853Y-56763616D01*
X171651627Y-56797963D01*
X171585443Y-56804481D01*
X171519260Y-56811000D01*
X171430740Y-56811000D01*
X171364557Y-56804481D01*
X171298373Y-56797963D01*
X171185147Y-56763616D01*
X171128533Y-56746443D01*
X170972011Y-56662779D01*
X170972009Y-56662778D01*
X170936271Y-56633448D01*
X170834814Y-56550186D01*
X170751552Y-56448729D01*
X170722222Y-56412991D01*
X170657457Y-56291825D01*
X170638557Y-56256467D01*
X170621384Y-56199853D01*
X170587037Y-56086627D01*
X170569641Y-55910000D01*
X170587037Y-55733373D01*
X170621384Y-55620147D01*
X170638557Y-55563533D01*
X170722221Y-55407011D01*
X170722222Y-55407009D01*
X170751552Y-55371271D01*
X170834814Y-55269814D01*
X170936271Y-55186552D01*
X170972009Y-55157222D01*
X170989913Y-55147652D01*
X171128533Y-55073557D01*
X171185147Y-55056384D01*
X171298373Y-55022037D01*
X171364558Y-55015518D01*
X171430740Y-55009000D01*
X171519260Y-55009000D01*
X171585442Y-55015518D01*
X171585442Y-55015518D01*
G37*
G36*
X33685443Y-53265519D02*
X33751627Y-53272037D01*
X33864853Y-53306384D01*
X33921467Y-53323557D01*
X34008354Y-53370000D01*
X34077991Y-53407222D01*
X34113729Y-53436552D01*
X34215186Y-53519814D01*
X34298448Y-53621271D01*
X34327778Y-53657009D01*
X34327779Y-53657011D01*
X34411443Y-53813533D01*
X34411443Y-53813534D01*
X34462963Y-53983373D01*
X34480359Y-54160000D01*
X34462963Y-54336627D01*
X34428616Y-54449853D01*
X34411443Y-54506467D01*
X34337348Y-54645087D01*
X34327778Y-54662991D01*
X34298448Y-54698729D01*
X34215186Y-54800186D01*
X34113729Y-54883448D01*
X34077991Y-54912778D01*
X34077989Y-54912779D01*
X33921467Y-54996443D01*
X33880071Y-55009000D01*
X33751627Y-55047963D01*
X33685442Y-55054482D01*
X33619260Y-55061000D01*
X33530740Y-55061000D01*
X33464558Y-55054482D01*
X33398373Y-55047963D01*
X33269929Y-55009000D01*
X33228533Y-54996443D01*
X33072011Y-54912779D01*
X33072009Y-54912778D01*
X33036271Y-54883448D01*
X32934814Y-54800186D01*
X32851552Y-54698729D01*
X32822222Y-54662991D01*
X32812652Y-54645087D01*
X32738557Y-54506467D01*
X32721384Y-54449853D01*
X32687037Y-54336627D01*
X32669641Y-54160000D01*
X32687037Y-53983373D01*
X32738557Y-53813534D01*
X32738557Y-53813533D01*
X32822221Y-53657011D01*
X32822222Y-53657009D01*
X32851552Y-53621271D01*
X32934814Y-53519814D01*
X33036271Y-53436552D01*
X33072009Y-53407222D01*
X33141646Y-53370000D01*
X33228533Y-53323557D01*
X33285147Y-53306384D01*
X33398373Y-53272037D01*
X33464557Y-53265519D01*
X33530740Y-53259000D01*
X33619260Y-53259000D01*
X33685443Y-53265519D01*
X33685443Y-53265519D01*
G37*
G36*
X171585443Y-52475519D02*
X171651627Y-52482037D01*
X171764853Y-52516384D01*
X171821467Y-52533557D01*
X171960087Y-52607652D01*
X171977991Y-52617222D01*
X172013729Y-52646552D01*
X172115186Y-52729814D01*
X172179649Y-52808364D01*
X172227778Y-52867009D01*
X172227779Y-52867011D01*
X172311443Y-53023533D01*
X172311443Y-53023534D01*
X172362963Y-53193373D01*
X172380359Y-53370000D01*
X172362963Y-53546627D01*
X172329479Y-53657009D01*
X172311443Y-53716467D01*
X172259559Y-53813533D01*
X172227778Y-53872991D01*
X172198448Y-53908729D01*
X172115186Y-54010186D01*
X172013729Y-54093448D01*
X171977991Y-54122778D01*
X171977989Y-54122779D01*
X171821467Y-54206443D01*
X171764853Y-54223616D01*
X171651627Y-54257963D01*
X171585442Y-54264482D01*
X171519260Y-54271000D01*
X171430740Y-54271000D01*
X171364558Y-54264482D01*
X171298373Y-54257963D01*
X171185147Y-54223616D01*
X171128533Y-54206443D01*
X170972011Y-54122779D01*
X170972009Y-54122778D01*
X170936271Y-54093448D01*
X170834814Y-54010186D01*
X170751552Y-53908729D01*
X170722222Y-53872991D01*
X170690441Y-53813533D01*
X170638557Y-53716467D01*
X170620521Y-53657009D01*
X170587037Y-53546627D01*
X170569641Y-53370000D01*
X170587037Y-53193373D01*
X170638557Y-53023534D01*
X170638557Y-53023533D01*
X170722221Y-52867011D01*
X170722222Y-52867009D01*
X170770351Y-52808364D01*
X170834814Y-52729814D01*
X170936271Y-52646552D01*
X170972009Y-52617222D01*
X170989913Y-52607652D01*
X171128533Y-52533557D01*
X171185147Y-52516384D01*
X171298373Y-52482037D01*
X171364558Y-52475518D01*
X171430740Y-52469000D01*
X171519260Y-52469000D01*
X171585443Y-52475519D01*
X171585443Y-52475519D01*
G37*
G36*
X46576000Y-51651000D02*
X46204896Y-51651000D01*
X46180510Y-51653402D01*
X46157061Y-51660515D01*
X46135450Y-51672066D01*
X46116508Y-51687612D01*
X46100962Y-51706554D01*
X46089411Y-51728165D01*
X46082298Y-51751614D01*
X46079896Y-51776000D01*
X46082298Y-51800386D01*
X46089411Y-51823835D01*
X46100962Y-51845446D01*
X46116508Y-51864388D01*
X46135450Y-51879934D01*
X46157061Y-51891485D01*
X46233361Y-51923089D01*
X46233364Y-51923091D01*
X46298281Y-51966467D01*
X46339992Y-51994338D01*
X46430662Y-52085008D01*
X46501911Y-52191639D01*
X46550983Y-52310110D01*
X46576000Y-52435881D01*
X46576000Y-52564119D01*
X46550983Y-52689890D01*
X46501911Y-52808361D01*
X46501909Y-52808364D01*
X46462724Y-52867009D01*
X46430662Y-52914992D01*
X46339992Y-53005662D01*
X46339989Y-53005664D01*
X46339988Y-53005665D01*
X46313245Y-53023534D01*
X46233361Y-53076911D01*
X46114890Y-53125983D01*
X45989119Y-53151000D01*
X45860881Y-53151000D01*
X45735110Y-53125983D01*
X45616639Y-53076911D01*
X45536755Y-53023534D01*
X45510012Y-53005665D01*
X45510011Y-53005664D01*
X45510008Y-53005662D01*
X45419338Y-52914992D01*
X45387277Y-52867009D01*
X45348091Y-52808364D01*
X45348089Y-52808361D01*
X45299017Y-52689890D01*
X45274000Y-52564119D01*
X45274000Y-52435881D01*
X45299017Y-52310110D01*
X45348089Y-52191639D01*
X45419338Y-52085008D01*
X45510008Y-51994338D01*
X45551720Y-51966467D01*
X45616636Y-51923091D01*
X45616639Y-51923089D01*
X45692939Y-51891485D01*
X45714550Y-51879934D01*
X45733492Y-51864389D01*
X45749037Y-51845447D01*
X45760589Y-51823836D01*
X45767702Y-51800387D01*
X45770104Y-51776001D01*
X45767702Y-51751614D01*
X45760589Y-51728165D01*
X45749038Y-51706554D01*
X45733493Y-51687612D01*
X45714551Y-51672067D01*
X45692940Y-51660515D01*
X45669491Y-51653402D01*
X45645104Y-51651000D01*
X45274000Y-51651000D01*
X45274000Y-50349000D01*
X46576000Y-50349000D01*
X46576000Y-51651000D01*
X46576000Y-51651000D01*
G37*
G36*
X33685442Y-50725518D02*
X33751627Y-50732037D01*
X33864853Y-50766384D01*
X33921467Y-50783557D01*
X34008354Y-50830000D01*
X34077991Y-50867222D01*
X34113729Y-50896552D01*
X34215186Y-50979814D01*
X34298448Y-51081271D01*
X34327778Y-51117009D01*
X34327779Y-51117011D01*
X34411443Y-51273533D01*
X34411443Y-51273534D01*
X34462963Y-51443373D01*
X34480359Y-51620000D01*
X34462963Y-51796627D01*
X34439487Y-51874017D01*
X34411443Y-51966467D01*
X34348078Y-52085012D01*
X34327778Y-52122991D01*
X34298448Y-52158729D01*
X34215186Y-52260186D01*
X34113729Y-52343448D01*
X34077991Y-52372778D01*
X34077989Y-52372779D01*
X33921467Y-52456443D01*
X33880071Y-52469000D01*
X33751627Y-52507963D01*
X33685443Y-52514481D01*
X33619260Y-52521000D01*
X33530740Y-52521000D01*
X33464557Y-52514481D01*
X33398373Y-52507963D01*
X33269929Y-52469000D01*
X33228533Y-52456443D01*
X33072011Y-52372779D01*
X33072009Y-52372778D01*
X33036271Y-52343448D01*
X32934814Y-52260186D01*
X32851552Y-52158729D01*
X32822222Y-52122991D01*
X32801922Y-52085012D01*
X32738557Y-51966467D01*
X32710513Y-51874017D01*
X32687037Y-51796627D01*
X32669641Y-51620000D01*
X32687037Y-51443373D01*
X32738557Y-51273534D01*
X32738557Y-51273533D01*
X32822221Y-51117011D01*
X32822222Y-51117009D01*
X32851552Y-51081271D01*
X32934814Y-50979814D01*
X33036271Y-50896552D01*
X33072009Y-50867222D01*
X33141646Y-50830000D01*
X33228533Y-50783557D01*
X33285147Y-50766384D01*
X33398373Y-50732037D01*
X33464558Y-50725518D01*
X33530740Y-50719000D01*
X33619260Y-50719000D01*
X33685442Y-50725518D01*
X33685442Y-50725518D01*
G37*
G36*
X171585443Y-49935519D02*
X171651627Y-49942037D01*
X171764853Y-49976384D01*
X171821467Y-49993557D01*
X171960087Y-50067652D01*
X171977991Y-50077222D01*
X172013729Y-50106552D01*
X172115186Y-50189814D01*
X172198448Y-50291271D01*
X172227778Y-50327009D01*
X172227779Y-50327011D01*
X172311443Y-50483533D01*
X172311443Y-50483534D01*
X172362963Y-50653373D01*
X172380359Y-50830000D01*
X172362963Y-51006627D01*
X172329479Y-51117009D01*
X172311443Y-51176467D01*
X172259559Y-51273533D01*
X172227778Y-51332991D01*
X172198448Y-51368729D01*
X172115186Y-51470186D01*
X172013729Y-51553448D01*
X171977991Y-51582778D01*
X171977989Y-51582779D01*
X171821467Y-51666443D01*
X171764853Y-51683616D01*
X171651627Y-51717963D01*
X171585442Y-51724482D01*
X171519260Y-51731000D01*
X171430740Y-51731000D01*
X171364557Y-51724481D01*
X171298373Y-51717963D01*
X171185147Y-51683616D01*
X171128533Y-51666443D01*
X170972011Y-51582779D01*
X170972009Y-51582778D01*
X170936271Y-51553448D01*
X170834814Y-51470186D01*
X170751552Y-51368729D01*
X170722222Y-51332991D01*
X170690441Y-51273533D01*
X170638557Y-51176467D01*
X170620521Y-51117009D01*
X170587037Y-51006627D01*
X170569641Y-50830000D01*
X170587037Y-50653373D01*
X170638557Y-50483534D01*
X170638557Y-50483533D01*
X170722221Y-50327011D01*
X170722222Y-50327009D01*
X170751552Y-50291271D01*
X170834814Y-50189814D01*
X170936271Y-50106552D01*
X170972009Y-50077222D01*
X170989913Y-50067652D01*
X171128533Y-49993557D01*
X171185147Y-49976384D01*
X171298373Y-49942037D01*
X171364558Y-49935518D01*
X171430740Y-49929000D01*
X171519260Y-49929000D01*
X171585443Y-49935519D01*
X171585443Y-49935519D01*
G37*
G36*
X33685443Y-48185519D02*
X33751627Y-48192037D01*
X33850072Y-48221900D01*
X33921467Y-48243557D01*
X34008354Y-48290000D01*
X34077991Y-48327222D01*
X34113729Y-48356552D01*
X34215186Y-48439814D01*
X34298377Y-48541184D01*
X34327778Y-48577009D01*
X34327779Y-48577011D01*
X34411443Y-48733533D01*
X34411443Y-48733534D01*
X34462963Y-48903373D01*
X34480359Y-49080000D01*
X34462963Y-49256627D01*
X34454048Y-49286015D01*
X34411443Y-49426467D01*
X34366256Y-49511004D01*
X34327778Y-49582991D01*
X34322005Y-49590025D01*
X34215186Y-49720186D01*
X34113729Y-49803448D01*
X34077991Y-49832778D01*
X34077989Y-49832779D01*
X33921467Y-49916443D01*
X33880071Y-49929000D01*
X33751627Y-49967963D01*
X33685442Y-49974482D01*
X33619260Y-49981000D01*
X33530740Y-49981000D01*
X33464558Y-49974482D01*
X33398373Y-49967963D01*
X33269929Y-49929000D01*
X33228533Y-49916443D01*
X33072011Y-49832779D01*
X33072009Y-49832778D01*
X33036271Y-49803448D01*
X32934814Y-49720186D01*
X32827995Y-49590025D01*
X32822222Y-49582991D01*
X32783744Y-49511004D01*
X32738557Y-49426467D01*
X32695952Y-49286015D01*
X32687037Y-49256627D01*
X32669641Y-49080000D01*
X32687037Y-48903373D01*
X32738557Y-48733534D01*
X32738557Y-48733533D01*
X32822221Y-48577011D01*
X32822222Y-48577009D01*
X32851623Y-48541184D01*
X32934814Y-48439814D01*
X33036271Y-48356552D01*
X33072009Y-48327222D01*
X33141646Y-48290000D01*
X33228533Y-48243557D01*
X33299928Y-48221900D01*
X33398373Y-48192037D01*
X33464557Y-48185519D01*
X33530740Y-48179000D01*
X33619260Y-48179000D01*
X33685443Y-48185519D01*
X33685443Y-48185519D01*
G37*
G36*
X136016821Y-47961313D02*
X136016824Y-47961314D01*
X136016825Y-47961314D01*
X136177239Y-48009975D01*
X136177241Y-48009976D01*
X136177244Y-48009977D01*
X136325078Y-48088995D01*
X136454659Y-48195341D01*
X136561005Y-48324922D01*
X136640023Y-48472756D01*
X136640024Y-48472759D01*
X136640025Y-48472761D01*
X136671648Y-48577009D01*
X136688687Y-48633179D01*
X136705117Y-48800000D01*
X136688687Y-48966821D01*
X136688686Y-48966824D01*
X136688686Y-48966825D01*
X136654355Y-49080000D01*
X136640023Y-49127244D01*
X136561005Y-49275078D01*
X136454659Y-49404659D01*
X136325078Y-49511005D01*
X136177244Y-49590023D01*
X136177241Y-49590024D01*
X136177239Y-49590025D01*
X136016825Y-49638686D01*
X136016824Y-49638686D01*
X136016821Y-49638687D01*
X135891804Y-49651000D01*
X135808196Y-49651000D01*
X135683179Y-49638687D01*
X135683176Y-49638686D01*
X135683175Y-49638686D01*
X135522761Y-49590025D01*
X135522759Y-49590024D01*
X135522756Y-49590023D01*
X135374922Y-49511005D01*
X135245341Y-49404659D01*
X135138995Y-49275078D01*
X135059977Y-49127244D01*
X135045646Y-49080000D01*
X135011314Y-48966825D01*
X135011314Y-48966824D01*
X135011313Y-48966821D01*
X134994883Y-48800000D01*
X135011313Y-48633179D01*
X135028352Y-48577009D01*
X135059975Y-48472761D01*
X135059976Y-48472759D01*
X135059977Y-48472756D01*
X135138995Y-48324922D01*
X135245341Y-48195341D01*
X135374922Y-48088995D01*
X135522756Y-48009977D01*
X135522759Y-48009976D01*
X135522761Y-48009975D01*
X135683175Y-47961314D01*
X135683176Y-47961314D01*
X135683179Y-47961313D01*
X135808196Y-47949000D01*
X135891804Y-47949000D01*
X136016821Y-47961313D01*
X136016821Y-47961313D01*
G37*
G36*
X124001000Y-49651000D02*
X122299000Y-49651000D01*
X122299000Y-47949000D01*
X124001000Y-47949000D01*
X124001000Y-49651000D01*
X124001000Y-49651000D01*
G37*
G36*
X125856821Y-47961313D02*
X125856824Y-47961314D01*
X125856825Y-47961314D01*
X126017239Y-48009975D01*
X126017241Y-48009976D01*
X126017244Y-48009977D01*
X126165078Y-48088995D01*
X126294659Y-48195341D01*
X126401005Y-48324922D01*
X126480023Y-48472756D01*
X126480024Y-48472759D01*
X126480025Y-48472761D01*
X126511648Y-48577009D01*
X126528687Y-48633179D01*
X126545117Y-48800000D01*
X126528687Y-48966821D01*
X126528686Y-48966824D01*
X126528686Y-48966825D01*
X126494355Y-49080000D01*
X126480023Y-49127244D01*
X126401005Y-49275078D01*
X126294659Y-49404659D01*
X126165078Y-49511005D01*
X126017244Y-49590023D01*
X126017241Y-49590024D01*
X126017239Y-49590025D01*
X125856825Y-49638686D01*
X125856824Y-49638686D01*
X125856821Y-49638687D01*
X125731804Y-49651000D01*
X125648196Y-49651000D01*
X125523179Y-49638687D01*
X125523176Y-49638686D01*
X125523175Y-49638686D01*
X125362761Y-49590025D01*
X125362759Y-49590024D01*
X125362756Y-49590023D01*
X125214922Y-49511005D01*
X125085341Y-49404659D01*
X124978995Y-49275078D01*
X124899977Y-49127244D01*
X124885646Y-49080000D01*
X124851314Y-48966825D01*
X124851314Y-48966824D01*
X124851313Y-48966821D01*
X124834883Y-48800000D01*
X124851313Y-48633179D01*
X124868352Y-48577009D01*
X124899975Y-48472761D01*
X124899976Y-48472759D01*
X124899977Y-48472756D01*
X124978995Y-48324922D01*
X125085341Y-48195341D01*
X125214922Y-48088995D01*
X125362756Y-48009977D01*
X125362759Y-48009976D01*
X125362761Y-48009975D01*
X125523175Y-47961314D01*
X125523176Y-47961314D01*
X125523179Y-47961313D01*
X125648196Y-47949000D01*
X125731804Y-47949000D01*
X125856821Y-47961313D01*
X125856821Y-47961313D01*
G37*
G36*
X128396821Y-47961313D02*
X128396824Y-47961314D01*
X128396825Y-47961314D01*
X128557239Y-48009975D01*
X128557241Y-48009976D01*
X128557244Y-48009977D01*
X128705078Y-48088995D01*
X128834659Y-48195341D01*
X128941005Y-48324922D01*
X129020023Y-48472756D01*
X129020024Y-48472759D01*
X129020025Y-48472761D01*
X129051648Y-48577009D01*
X129068687Y-48633179D01*
X129085117Y-48800000D01*
X129068687Y-48966821D01*
X129068686Y-48966824D01*
X129068686Y-48966825D01*
X129034355Y-49080000D01*
X129020023Y-49127244D01*
X128941005Y-49275078D01*
X128834659Y-49404659D01*
X128705078Y-49511005D01*
X128557244Y-49590023D01*
X128557241Y-49590024D01*
X128557239Y-49590025D01*
X128396825Y-49638686D01*
X128396824Y-49638686D01*
X128396821Y-49638687D01*
X128271804Y-49651000D01*
X128188196Y-49651000D01*
X128063179Y-49638687D01*
X128063176Y-49638686D01*
X128063175Y-49638686D01*
X127902761Y-49590025D01*
X127902759Y-49590024D01*
X127902756Y-49590023D01*
X127754922Y-49511005D01*
X127625341Y-49404659D01*
X127518995Y-49275078D01*
X127439977Y-49127244D01*
X127425646Y-49080000D01*
X127391314Y-48966825D01*
X127391314Y-48966824D01*
X127391313Y-48966821D01*
X127374883Y-48800000D01*
X127391313Y-48633179D01*
X127408352Y-48577009D01*
X127439975Y-48472761D01*
X127439976Y-48472759D01*
X127439977Y-48472756D01*
X127518995Y-48324922D01*
X127625341Y-48195341D01*
X127754922Y-48088995D01*
X127902756Y-48009977D01*
X127902759Y-48009976D01*
X127902761Y-48009975D01*
X128063175Y-47961314D01*
X128063176Y-47961314D01*
X128063179Y-47961313D01*
X128188196Y-47949000D01*
X128271804Y-47949000D01*
X128396821Y-47961313D01*
X128396821Y-47961313D01*
G37*
G36*
X130936821Y-47961313D02*
X130936824Y-47961314D01*
X130936825Y-47961314D01*
X131097239Y-48009975D01*
X131097241Y-48009976D01*
X131097244Y-48009977D01*
X131245078Y-48088995D01*
X131374659Y-48195341D01*
X131481005Y-48324922D01*
X131560023Y-48472756D01*
X131560024Y-48472759D01*
X131560025Y-48472761D01*
X131591648Y-48577009D01*
X131608687Y-48633179D01*
X131625117Y-48800000D01*
X131608687Y-48966821D01*
X131608686Y-48966824D01*
X131608686Y-48966825D01*
X131574355Y-49080000D01*
X131560023Y-49127244D01*
X131481005Y-49275078D01*
X131374659Y-49404659D01*
X131245078Y-49511005D01*
X131097244Y-49590023D01*
X131097241Y-49590024D01*
X131097239Y-49590025D01*
X130936825Y-49638686D01*
X130936824Y-49638686D01*
X130936821Y-49638687D01*
X130811804Y-49651000D01*
X130728196Y-49651000D01*
X130603179Y-49638687D01*
X130603176Y-49638686D01*
X130603175Y-49638686D01*
X130442761Y-49590025D01*
X130442759Y-49590024D01*
X130442756Y-49590023D01*
X130294922Y-49511005D01*
X130165341Y-49404659D01*
X130058995Y-49275078D01*
X129979977Y-49127244D01*
X129965646Y-49080000D01*
X129931314Y-48966825D01*
X129931314Y-48966824D01*
X129931313Y-48966821D01*
X129914883Y-48800000D01*
X129931313Y-48633179D01*
X129948352Y-48577009D01*
X129979975Y-48472761D01*
X129979976Y-48472759D01*
X129979977Y-48472756D01*
X130058995Y-48324922D01*
X130165341Y-48195341D01*
X130294922Y-48088995D01*
X130442756Y-48009977D01*
X130442759Y-48009976D01*
X130442761Y-48009975D01*
X130603175Y-47961314D01*
X130603176Y-47961314D01*
X130603179Y-47961313D01*
X130728196Y-47949000D01*
X130811804Y-47949000D01*
X130936821Y-47961313D01*
X130936821Y-47961313D01*
G37*
G36*
X133476821Y-47961313D02*
X133476824Y-47961314D01*
X133476825Y-47961314D01*
X133637239Y-48009975D01*
X133637241Y-48009976D01*
X133637244Y-48009977D01*
X133785078Y-48088995D01*
X133914659Y-48195341D01*
X134021005Y-48324922D01*
X134100023Y-48472756D01*
X134100024Y-48472759D01*
X134100025Y-48472761D01*
X134131648Y-48577009D01*
X134148687Y-48633179D01*
X134165117Y-48800000D01*
X134148687Y-48966821D01*
X134148686Y-48966824D01*
X134148686Y-48966825D01*
X134114355Y-49080000D01*
X134100023Y-49127244D01*
X134021005Y-49275078D01*
X133914659Y-49404659D01*
X133785078Y-49511005D01*
X133637244Y-49590023D01*
X133637241Y-49590024D01*
X133637239Y-49590025D01*
X133476825Y-49638686D01*
X133476824Y-49638686D01*
X133476821Y-49638687D01*
X133351804Y-49651000D01*
X133268196Y-49651000D01*
X133143179Y-49638687D01*
X133143176Y-49638686D01*
X133143175Y-49638686D01*
X132982761Y-49590025D01*
X132982759Y-49590024D01*
X132982756Y-49590023D01*
X132834922Y-49511005D01*
X132705341Y-49404659D01*
X132598995Y-49275078D01*
X132519977Y-49127244D01*
X132505646Y-49080000D01*
X132471314Y-48966825D01*
X132471314Y-48966824D01*
X132471313Y-48966821D01*
X132454883Y-48800000D01*
X132471313Y-48633179D01*
X132488352Y-48577009D01*
X132519975Y-48472761D01*
X132519976Y-48472759D01*
X132519977Y-48472756D01*
X132598995Y-48324922D01*
X132705341Y-48195341D01*
X132834922Y-48088995D01*
X132982756Y-48009977D01*
X132982759Y-48009976D01*
X132982761Y-48009975D01*
X133143175Y-47961314D01*
X133143176Y-47961314D01*
X133143179Y-47961313D01*
X133268196Y-47949000D01*
X133351804Y-47949000D01*
X133476821Y-47961313D01*
X133476821Y-47961313D01*
G37*
G36*
X138556821Y-47961313D02*
X138556824Y-47961314D01*
X138556825Y-47961314D01*
X138717239Y-48009975D01*
X138717241Y-48009976D01*
X138717244Y-48009977D01*
X138865078Y-48088995D01*
X138994659Y-48195341D01*
X139101005Y-48324922D01*
X139180023Y-48472756D01*
X139180024Y-48472759D01*
X139180025Y-48472761D01*
X139211648Y-48577009D01*
X139228687Y-48633179D01*
X139245117Y-48800000D01*
X139228687Y-48966821D01*
X139228686Y-48966824D01*
X139228686Y-48966825D01*
X139194355Y-49080000D01*
X139180023Y-49127244D01*
X139101005Y-49275078D01*
X138994659Y-49404659D01*
X138865078Y-49511005D01*
X138717244Y-49590023D01*
X138717241Y-49590024D01*
X138717239Y-49590025D01*
X138556825Y-49638686D01*
X138556824Y-49638686D01*
X138556821Y-49638687D01*
X138431804Y-49651000D01*
X138348196Y-49651000D01*
X138223179Y-49638687D01*
X138223176Y-49638686D01*
X138223175Y-49638686D01*
X138062761Y-49590025D01*
X138062759Y-49590024D01*
X138062756Y-49590023D01*
X137914922Y-49511005D01*
X137785341Y-49404659D01*
X137678995Y-49275078D01*
X137599977Y-49127244D01*
X137585646Y-49080000D01*
X137551314Y-48966825D01*
X137551314Y-48966824D01*
X137551313Y-48966821D01*
X137534883Y-48800000D01*
X137551313Y-48633179D01*
X137568352Y-48577009D01*
X137599975Y-48472761D01*
X137599976Y-48472759D01*
X137599977Y-48472756D01*
X137678995Y-48324922D01*
X137785341Y-48195341D01*
X137914922Y-48088995D01*
X138062756Y-48009977D01*
X138062759Y-48009976D01*
X138062761Y-48009975D01*
X138223175Y-47961314D01*
X138223176Y-47961314D01*
X138223179Y-47961313D01*
X138348196Y-47949000D01*
X138431804Y-47949000D01*
X138556821Y-47961313D01*
X138556821Y-47961313D01*
G37*
G36*
X141096821Y-47961313D02*
X141096824Y-47961314D01*
X141096825Y-47961314D01*
X141257239Y-48009975D01*
X141257241Y-48009976D01*
X141257244Y-48009977D01*
X141405078Y-48088995D01*
X141534659Y-48195341D01*
X141641005Y-48324922D01*
X141720023Y-48472756D01*
X141720024Y-48472759D01*
X141720025Y-48472761D01*
X141751648Y-48577009D01*
X141768687Y-48633179D01*
X141785117Y-48800000D01*
X141768687Y-48966821D01*
X141768686Y-48966824D01*
X141768686Y-48966825D01*
X141734355Y-49080000D01*
X141720023Y-49127244D01*
X141641005Y-49275078D01*
X141534659Y-49404659D01*
X141405078Y-49511005D01*
X141257244Y-49590023D01*
X141257241Y-49590024D01*
X141257239Y-49590025D01*
X141096825Y-49638686D01*
X141096824Y-49638686D01*
X141096821Y-49638687D01*
X140971804Y-49651000D01*
X140888196Y-49651000D01*
X140763179Y-49638687D01*
X140763176Y-49638686D01*
X140763175Y-49638686D01*
X140602761Y-49590025D01*
X140602759Y-49590024D01*
X140602756Y-49590023D01*
X140454922Y-49511005D01*
X140325341Y-49404659D01*
X140218995Y-49275078D01*
X140139977Y-49127244D01*
X140125646Y-49080000D01*
X140091314Y-48966825D01*
X140091314Y-48966824D01*
X140091313Y-48966821D01*
X140074883Y-48800000D01*
X140091313Y-48633179D01*
X140108352Y-48577009D01*
X140139975Y-48472761D01*
X140139976Y-48472759D01*
X140139977Y-48472756D01*
X140218995Y-48324922D01*
X140325341Y-48195341D01*
X140454922Y-48088995D01*
X140602756Y-48009977D01*
X140602759Y-48009976D01*
X140602761Y-48009975D01*
X140763175Y-47961314D01*
X140763176Y-47961314D01*
X140763179Y-47961313D01*
X140888196Y-47949000D01*
X140971804Y-47949000D01*
X141096821Y-47961313D01*
X141096821Y-47961313D01*
G37*
G36*
X143636821Y-47961313D02*
X143636824Y-47961314D01*
X143636825Y-47961314D01*
X143797239Y-48009975D01*
X143797241Y-48009976D01*
X143797244Y-48009977D01*
X143945078Y-48088995D01*
X144074659Y-48195341D01*
X144181005Y-48324922D01*
X144260023Y-48472756D01*
X144260024Y-48472759D01*
X144260025Y-48472761D01*
X144291648Y-48577009D01*
X144308687Y-48633179D01*
X144325117Y-48800000D01*
X144308687Y-48966821D01*
X144308686Y-48966824D01*
X144308686Y-48966825D01*
X144274355Y-49080000D01*
X144260023Y-49127244D01*
X144181005Y-49275078D01*
X144074659Y-49404659D01*
X143945078Y-49511005D01*
X143797244Y-49590023D01*
X143797241Y-49590024D01*
X143797239Y-49590025D01*
X143636825Y-49638686D01*
X143636824Y-49638686D01*
X143636821Y-49638687D01*
X143511804Y-49651000D01*
X143428196Y-49651000D01*
X143303179Y-49638687D01*
X143303176Y-49638686D01*
X143303175Y-49638686D01*
X143142761Y-49590025D01*
X143142759Y-49590024D01*
X143142756Y-49590023D01*
X142994922Y-49511005D01*
X142865341Y-49404659D01*
X142758995Y-49275078D01*
X142679977Y-49127244D01*
X142665646Y-49080000D01*
X142631314Y-48966825D01*
X142631314Y-48966824D01*
X142631313Y-48966821D01*
X142614883Y-48800000D01*
X142631313Y-48633179D01*
X142648352Y-48577009D01*
X142679975Y-48472761D01*
X142679976Y-48472759D01*
X142679977Y-48472756D01*
X142758995Y-48324922D01*
X142865341Y-48195341D01*
X142994922Y-48088995D01*
X143142756Y-48009977D01*
X143142759Y-48009976D01*
X143142761Y-48009975D01*
X143303175Y-47961314D01*
X143303176Y-47961314D01*
X143303179Y-47961313D01*
X143428196Y-47949000D01*
X143511804Y-47949000D01*
X143636821Y-47961313D01*
X143636821Y-47961313D01*
G37*
G36*
X146176821Y-47961313D02*
X146176824Y-47961314D01*
X146176825Y-47961314D01*
X146337239Y-48009975D01*
X146337241Y-48009976D01*
X146337244Y-48009977D01*
X146485078Y-48088995D01*
X146614659Y-48195341D01*
X146721005Y-48324922D01*
X146800023Y-48472756D01*
X146800024Y-48472759D01*
X146800025Y-48472761D01*
X146831648Y-48577009D01*
X146848687Y-48633179D01*
X146865117Y-48800000D01*
X146848687Y-48966821D01*
X146848686Y-48966824D01*
X146848686Y-48966825D01*
X146814355Y-49080000D01*
X146800023Y-49127244D01*
X146721005Y-49275078D01*
X146614659Y-49404659D01*
X146485078Y-49511005D01*
X146337244Y-49590023D01*
X146337241Y-49590024D01*
X146337239Y-49590025D01*
X146176825Y-49638686D01*
X146176824Y-49638686D01*
X146176821Y-49638687D01*
X146051804Y-49651000D01*
X145968196Y-49651000D01*
X145843179Y-49638687D01*
X145843176Y-49638686D01*
X145843175Y-49638686D01*
X145682761Y-49590025D01*
X145682759Y-49590024D01*
X145682756Y-49590023D01*
X145534922Y-49511005D01*
X145405341Y-49404659D01*
X145298995Y-49275078D01*
X145219977Y-49127244D01*
X145205646Y-49080000D01*
X145171314Y-48966825D01*
X145171314Y-48966824D01*
X145171313Y-48966821D01*
X145154883Y-48800000D01*
X145171313Y-48633179D01*
X145188352Y-48577009D01*
X145219975Y-48472761D01*
X145219976Y-48472759D01*
X145219977Y-48472756D01*
X145298995Y-48324922D01*
X145405341Y-48195341D01*
X145534922Y-48088995D01*
X145682756Y-48009977D01*
X145682759Y-48009976D01*
X145682761Y-48009975D01*
X145843175Y-47961314D01*
X145843176Y-47961314D01*
X145843179Y-47961313D01*
X145968196Y-47949000D01*
X146051804Y-47949000D01*
X146176821Y-47961313D01*
X146176821Y-47961313D01*
G37*
G36*
X148716821Y-47961313D02*
X148716824Y-47961314D01*
X148716825Y-47961314D01*
X148877239Y-48009975D01*
X148877241Y-48009976D01*
X148877244Y-48009977D01*
X149025078Y-48088995D01*
X149154659Y-48195341D01*
X149261005Y-48324922D01*
X149340023Y-48472756D01*
X149340024Y-48472759D01*
X149340025Y-48472761D01*
X149371648Y-48577009D01*
X149388687Y-48633179D01*
X149405117Y-48800000D01*
X149388687Y-48966821D01*
X149388686Y-48966824D01*
X149388686Y-48966825D01*
X149354355Y-49080000D01*
X149340023Y-49127244D01*
X149261005Y-49275078D01*
X149154659Y-49404659D01*
X149025078Y-49511005D01*
X148877244Y-49590023D01*
X148877241Y-49590024D01*
X148877239Y-49590025D01*
X148716825Y-49638686D01*
X148716824Y-49638686D01*
X148716821Y-49638687D01*
X148591804Y-49651000D01*
X148508196Y-49651000D01*
X148383179Y-49638687D01*
X148383176Y-49638686D01*
X148383175Y-49638686D01*
X148222761Y-49590025D01*
X148222759Y-49590024D01*
X148222756Y-49590023D01*
X148074922Y-49511005D01*
X147945341Y-49404659D01*
X147838995Y-49275078D01*
X147759977Y-49127244D01*
X147745646Y-49080000D01*
X147711314Y-48966825D01*
X147711314Y-48966824D01*
X147711313Y-48966821D01*
X147694883Y-48800000D01*
X147711313Y-48633179D01*
X147728352Y-48577009D01*
X147759975Y-48472761D01*
X147759976Y-48472759D01*
X147759977Y-48472756D01*
X147838995Y-48324922D01*
X147945341Y-48195341D01*
X148074922Y-48088995D01*
X148222756Y-48009977D01*
X148222759Y-48009976D01*
X148222761Y-48009975D01*
X148383175Y-47961314D01*
X148383176Y-47961314D01*
X148383179Y-47961313D01*
X148508196Y-47949000D01*
X148591804Y-47949000D01*
X148716821Y-47961313D01*
X148716821Y-47961313D01*
G37*
G36*
X151256821Y-47961313D02*
X151256824Y-47961314D01*
X151256825Y-47961314D01*
X151417239Y-48009975D01*
X151417241Y-48009976D01*
X151417244Y-48009977D01*
X151565078Y-48088995D01*
X151694659Y-48195341D01*
X151801005Y-48324922D01*
X151880023Y-48472756D01*
X151880024Y-48472759D01*
X151880025Y-48472761D01*
X151911648Y-48577009D01*
X151928687Y-48633179D01*
X151945117Y-48800000D01*
X151928687Y-48966821D01*
X151928686Y-48966824D01*
X151928686Y-48966825D01*
X151894355Y-49080000D01*
X151880023Y-49127244D01*
X151801005Y-49275078D01*
X151694659Y-49404659D01*
X151565078Y-49511005D01*
X151417244Y-49590023D01*
X151417241Y-49590024D01*
X151417239Y-49590025D01*
X151256825Y-49638686D01*
X151256824Y-49638686D01*
X151256821Y-49638687D01*
X151131804Y-49651000D01*
X151048196Y-49651000D01*
X150923179Y-49638687D01*
X150923176Y-49638686D01*
X150923175Y-49638686D01*
X150762761Y-49590025D01*
X150762759Y-49590024D01*
X150762756Y-49590023D01*
X150614922Y-49511005D01*
X150485341Y-49404659D01*
X150378995Y-49275078D01*
X150299977Y-49127244D01*
X150285646Y-49080000D01*
X150251314Y-48966825D01*
X150251314Y-48966824D01*
X150251313Y-48966821D01*
X150234883Y-48800000D01*
X150251313Y-48633179D01*
X150268352Y-48577009D01*
X150299975Y-48472761D01*
X150299976Y-48472759D01*
X150299977Y-48472756D01*
X150378995Y-48324922D01*
X150485341Y-48195341D01*
X150614922Y-48088995D01*
X150762756Y-48009977D01*
X150762759Y-48009976D01*
X150762761Y-48009975D01*
X150923175Y-47961314D01*
X150923176Y-47961314D01*
X150923179Y-47961313D01*
X151048196Y-47949000D01*
X151131804Y-47949000D01*
X151256821Y-47961313D01*
X151256821Y-47961313D01*
G37*
G36*
X101298228Y-47806703D02*
X101453100Y-47870853D01*
X101592481Y-47963985D01*
X101711015Y-48082519D01*
X101804147Y-48221900D01*
X101868297Y-48376772D01*
X101901000Y-48541184D01*
X101901000Y-48708816D01*
X101868297Y-48873228D01*
X101804147Y-49028100D01*
X101711015Y-49167481D01*
X101592481Y-49286015D01*
X101453100Y-49379147D01*
X101298228Y-49443297D01*
X101133816Y-49476000D01*
X100966184Y-49476000D01*
X100801772Y-49443297D01*
X100646900Y-49379147D01*
X100507519Y-49286015D01*
X100388985Y-49167481D01*
X100295853Y-49028100D01*
X100231703Y-48873228D01*
X100199000Y-48708816D01*
X100199000Y-48541184D01*
X100231703Y-48376772D01*
X100295853Y-48221900D01*
X100388985Y-48082519D01*
X100507519Y-47963985D01*
X100646900Y-47870853D01*
X100801772Y-47806703D01*
X100966184Y-47774000D01*
X101133816Y-47774000D01*
X101298228Y-47806703D01*
X101298228Y-47806703D01*
G37*
G36*
X171585443Y-47395519D02*
X171651627Y-47402037D01*
X171764853Y-47436384D01*
X171821467Y-47453557D01*
X171960087Y-47527652D01*
X171977991Y-47537222D01*
X172013729Y-47566552D01*
X172115186Y-47649814D01*
X172198448Y-47751271D01*
X172227778Y-47787009D01*
X172227779Y-47787011D01*
X172311443Y-47943533D01*
X172317647Y-47963985D01*
X172362963Y-48113373D01*
X172380359Y-48290000D01*
X172362963Y-48466627D01*
X172361102Y-48472761D01*
X172311443Y-48636467D01*
X172272771Y-48708816D01*
X172227778Y-48792991D01*
X172198448Y-48828729D01*
X172115186Y-48930186D01*
X172013729Y-49013448D01*
X171977991Y-49042778D01*
X171977989Y-49042779D01*
X171821467Y-49126443D01*
X171764853Y-49143616D01*
X171651627Y-49177963D01*
X171585442Y-49184482D01*
X171519260Y-49191000D01*
X171430740Y-49191000D01*
X171364557Y-49184481D01*
X171298373Y-49177963D01*
X171185147Y-49143616D01*
X171128533Y-49126443D01*
X170972011Y-49042779D01*
X170972009Y-49042778D01*
X170936271Y-49013448D01*
X170834814Y-48930186D01*
X170751552Y-48828729D01*
X170722222Y-48792991D01*
X170677229Y-48708816D01*
X170638557Y-48636467D01*
X170588898Y-48472761D01*
X170587037Y-48466627D01*
X170569641Y-48290000D01*
X170587037Y-48113373D01*
X170632353Y-47963985D01*
X170638557Y-47943533D01*
X170722221Y-47787011D01*
X170722222Y-47787009D01*
X170751552Y-47751271D01*
X170834814Y-47649814D01*
X170936271Y-47566552D01*
X170972009Y-47537222D01*
X170989913Y-47527652D01*
X171128533Y-47453557D01*
X171185147Y-47436384D01*
X171298373Y-47402037D01*
X171364557Y-47395519D01*
X171430740Y-47389000D01*
X171519260Y-47389000D01*
X171585443Y-47395519D01*
X171585443Y-47395519D01*
G37*
G36*
X33685442Y-45645518D02*
X33751627Y-45652037D01*
X33864853Y-45686384D01*
X33921467Y-45703557D01*
X34060087Y-45777652D01*
X34077991Y-45787222D01*
X34113729Y-45816552D01*
X34215186Y-45899814D01*
X34298448Y-46001271D01*
X34327778Y-46037009D01*
X34327779Y-46037011D01*
X34411443Y-46193533D01*
X34411443Y-46193534D01*
X34462963Y-46363373D01*
X34480359Y-46540000D01*
X34462963Y-46716627D01*
X34428616Y-46829853D01*
X34411443Y-46886467D01*
X34337348Y-47025087D01*
X34327778Y-47042991D01*
X34298448Y-47078729D01*
X34215186Y-47180186D01*
X34113729Y-47263448D01*
X34077991Y-47292778D01*
X34077989Y-47292779D01*
X33921467Y-47376443D01*
X33880071Y-47389000D01*
X33751627Y-47427963D01*
X33685443Y-47434481D01*
X33619260Y-47441000D01*
X33530740Y-47441000D01*
X33464557Y-47434481D01*
X33398373Y-47427963D01*
X33269929Y-47389000D01*
X33228533Y-47376443D01*
X33072011Y-47292779D01*
X33072009Y-47292778D01*
X33036271Y-47263448D01*
X32934814Y-47180186D01*
X32851552Y-47078729D01*
X32822222Y-47042991D01*
X32812652Y-47025087D01*
X32738557Y-46886467D01*
X32721384Y-46829853D01*
X32687037Y-46716627D01*
X32669641Y-46540000D01*
X32687037Y-46363373D01*
X32738557Y-46193534D01*
X32738557Y-46193533D01*
X32822221Y-46037011D01*
X32822222Y-46037009D01*
X32851552Y-46001271D01*
X32934814Y-45899814D01*
X33036271Y-45816552D01*
X33072009Y-45787222D01*
X33089913Y-45777652D01*
X33228533Y-45703557D01*
X33285147Y-45686384D01*
X33398373Y-45652037D01*
X33464558Y-45645518D01*
X33530740Y-45639000D01*
X33619260Y-45639000D01*
X33685442Y-45645518D01*
X33685442Y-45645518D01*
G37*
G36*
X159223228Y-43956703D02*
X159378100Y-44020853D01*
X159517481Y-44113985D01*
X159636015Y-44232519D01*
X159729147Y-44371900D01*
X159793297Y-44526772D01*
X159826000Y-44691184D01*
X159826000Y-44858816D01*
X159793297Y-45023228D01*
X159729147Y-45178100D01*
X159636015Y-45317481D01*
X159517481Y-45436015D01*
X159378100Y-45529147D01*
X159223228Y-45593297D01*
X159058816Y-45626000D01*
X158891184Y-45626000D01*
X158726772Y-45593297D01*
X158571900Y-45529147D01*
X158432519Y-45436015D01*
X158313985Y-45317481D01*
X158220853Y-45178100D01*
X158156703Y-45023228D01*
X158124000Y-44858816D01*
X158124000Y-44691184D01*
X158156703Y-44526772D01*
X158220853Y-44371900D01*
X158313985Y-44232519D01*
X158432519Y-44113985D01*
X158571900Y-44020853D01*
X158726772Y-43956703D01*
X158891184Y-43924000D01*
X159058816Y-43924000D01*
X159223228Y-43956703D01*
X159223228Y-43956703D01*
G37*
G36*
X140393643Y-43989781D02*
X140539415Y-44050162D01*
X140670611Y-44137824D01*
X140782176Y-44249389D01*
X140869838Y-44380585D01*
X140930219Y-44526357D01*
X140961000Y-44681107D01*
X140961000Y-44838893D01*
X140930219Y-44993643D01*
X140869838Y-45139415D01*
X140782176Y-45270611D01*
X140670611Y-45382176D01*
X140539415Y-45469838D01*
X140393643Y-45530219D01*
X140238893Y-45561000D01*
X140081107Y-45561000D01*
X139926357Y-45530219D01*
X139780585Y-45469838D01*
X139649389Y-45382176D01*
X139537824Y-45270611D01*
X139450162Y-45139415D01*
X139389781Y-44993643D01*
X139359000Y-44838893D01*
X139359000Y-44681107D01*
X139389781Y-44526357D01*
X139450162Y-44380585D01*
X139537824Y-44249389D01*
X139649389Y-44137824D01*
X139780585Y-44050162D01*
X139926357Y-43989781D01*
X140081107Y-43959000D01*
X140238893Y-43959000D01*
X140393643Y-43989781D01*
X140393643Y-43989781D01*
G37*
G36*
X59233643Y-43989781D02*
X59379415Y-44050162D01*
X59510611Y-44137824D01*
X59622176Y-44249389D01*
X59709838Y-44380585D01*
X59770219Y-44526357D01*
X59801000Y-44681107D01*
X59801000Y-44838893D01*
X59770219Y-44993643D01*
X59709838Y-45139415D01*
X59622176Y-45270611D01*
X59510611Y-45382176D01*
X59379415Y-45469838D01*
X59233643Y-45530219D01*
X59078893Y-45561000D01*
X58921107Y-45561000D01*
X58766357Y-45530219D01*
X58620585Y-45469838D01*
X58489389Y-45382176D01*
X58377824Y-45270611D01*
X58290162Y-45139415D01*
X58229781Y-44993643D01*
X58199000Y-44838893D01*
X58199000Y-44681107D01*
X58229781Y-44526357D01*
X58290162Y-44380585D01*
X58377824Y-44249389D01*
X58489389Y-44137824D01*
X58620585Y-44050162D01*
X58766357Y-43989781D01*
X58921107Y-43959000D01*
X59078893Y-43959000D01*
X59233643Y-43989781D01*
X59233643Y-43989781D01*
G37*
G36*
X142933643Y-43989781D02*
X143079415Y-44050162D01*
X143210611Y-44137824D01*
X143322176Y-44249389D01*
X143409838Y-44380585D01*
X143470219Y-44526357D01*
X143501000Y-44681107D01*
X143501000Y-44838893D01*
X143470219Y-44993643D01*
X143409838Y-45139415D01*
X143322176Y-45270611D01*
X143210611Y-45382176D01*
X143079415Y-45469838D01*
X142933643Y-45530219D01*
X142778893Y-45561000D01*
X142621107Y-45561000D01*
X142466357Y-45530219D01*
X142320585Y-45469838D01*
X142189389Y-45382176D01*
X142077824Y-45270611D01*
X141990162Y-45139415D01*
X141929781Y-44993643D01*
X141899000Y-44838893D01*
X141899000Y-44681107D01*
X141929781Y-44526357D01*
X141990162Y-44380585D01*
X142077824Y-44249389D01*
X142189389Y-44137824D01*
X142320585Y-44050162D01*
X142466357Y-43989781D01*
X142621107Y-43959000D01*
X142778893Y-43959000D01*
X142933643Y-43989781D01*
X142933643Y-43989781D01*
G37*
G36*
X137853643Y-43989781D02*
X137999415Y-44050162D01*
X138130611Y-44137824D01*
X138242176Y-44249389D01*
X138329838Y-44380585D01*
X138390219Y-44526357D01*
X138421000Y-44681107D01*
X138421000Y-44838893D01*
X138390219Y-44993643D01*
X138329838Y-45139415D01*
X138242176Y-45270611D01*
X138130611Y-45382176D01*
X137999415Y-45469838D01*
X137853643Y-45530219D01*
X137698893Y-45561000D01*
X137541107Y-45561000D01*
X137386357Y-45530219D01*
X137240585Y-45469838D01*
X137109389Y-45382176D01*
X136997824Y-45270611D01*
X136910162Y-45139415D01*
X136849781Y-44993643D01*
X136819000Y-44838893D01*
X136819000Y-44681107D01*
X136849781Y-44526357D01*
X136910162Y-44380585D01*
X136997824Y-44249389D01*
X137109389Y-44137824D01*
X137240585Y-44050162D01*
X137386357Y-43989781D01*
X137541107Y-43959000D01*
X137698893Y-43959000D01*
X137853643Y-43989781D01*
X137853643Y-43989781D01*
G37*
G36*
X135313643Y-43989781D02*
X135459415Y-44050162D01*
X135590611Y-44137824D01*
X135702176Y-44249389D01*
X135789838Y-44380585D01*
X135850219Y-44526357D01*
X135881000Y-44681107D01*
X135881000Y-44838893D01*
X135850219Y-44993643D01*
X135789838Y-45139415D01*
X135702176Y-45270611D01*
X135590611Y-45382176D01*
X135459415Y-45469838D01*
X135313643Y-45530219D01*
X135158893Y-45561000D01*
X135001107Y-45561000D01*
X134846357Y-45530219D01*
X134700585Y-45469838D01*
X134569389Y-45382176D01*
X134457824Y-45270611D01*
X134370162Y-45139415D01*
X134309781Y-44993643D01*
X134279000Y-44838893D01*
X134279000Y-44681107D01*
X134309781Y-44526357D01*
X134370162Y-44380585D01*
X134457824Y-44249389D01*
X134569389Y-44137824D01*
X134700585Y-44050162D01*
X134846357Y-43989781D01*
X135001107Y-43959000D01*
X135158893Y-43959000D01*
X135313643Y-43989781D01*
X135313643Y-43989781D01*
G37*
G36*
X132773643Y-43989781D02*
X132919415Y-44050162D01*
X133050611Y-44137824D01*
X133162176Y-44249389D01*
X133249838Y-44380585D01*
X133310219Y-44526357D01*
X133341000Y-44681107D01*
X133341000Y-44838893D01*
X133310219Y-44993643D01*
X133249838Y-45139415D01*
X133162176Y-45270611D01*
X133050611Y-45382176D01*
X132919415Y-45469838D01*
X132773643Y-45530219D01*
X132618893Y-45561000D01*
X132461107Y-45561000D01*
X132306357Y-45530219D01*
X132160585Y-45469838D01*
X132029389Y-45382176D01*
X131917824Y-45270611D01*
X131830162Y-45139415D01*
X131769781Y-44993643D01*
X131739000Y-44838893D01*
X131739000Y-44681107D01*
X131769781Y-44526357D01*
X131830162Y-44380585D01*
X131917824Y-44249389D01*
X132029389Y-44137824D01*
X132160585Y-44050162D01*
X132306357Y-43989781D01*
X132461107Y-43959000D01*
X132618893Y-43959000D01*
X132773643Y-43989781D01*
X132773643Y-43989781D01*
G37*
G36*
X130233643Y-43989781D02*
X130379415Y-44050162D01*
X130510611Y-44137824D01*
X130622176Y-44249389D01*
X130709838Y-44380585D01*
X130770219Y-44526357D01*
X130801000Y-44681107D01*
X130801000Y-44838893D01*
X130770219Y-44993643D01*
X130709838Y-45139415D01*
X130622176Y-45270611D01*
X130510611Y-45382176D01*
X130379415Y-45469838D01*
X130233643Y-45530219D01*
X130078893Y-45561000D01*
X129921107Y-45561000D01*
X129766357Y-45530219D01*
X129620585Y-45469838D01*
X129489389Y-45382176D01*
X129377824Y-45270611D01*
X129290162Y-45139415D01*
X129229781Y-44993643D01*
X129199000Y-44838893D01*
X129199000Y-44681107D01*
X129229781Y-44526357D01*
X129290162Y-44380585D01*
X129377824Y-44249389D01*
X129489389Y-44137824D01*
X129620585Y-44050162D01*
X129766357Y-43989781D01*
X129921107Y-43959000D01*
X130078893Y-43959000D01*
X130233643Y-43989781D01*
X130233643Y-43989781D01*
G37*
G36*
X61773643Y-43989781D02*
X61919415Y-44050162D01*
X62050611Y-44137824D01*
X62162176Y-44249389D01*
X62249838Y-44380585D01*
X62310219Y-44526357D01*
X62341000Y-44681107D01*
X62341000Y-44838893D01*
X62310219Y-44993643D01*
X62249838Y-45139415D01*
X62162176Y-45270611D01*
X62050611Y-45382176D01*
X61919415Y-45469838D01*
X61773643Y-45530219D01*
X61618893Y-45561000D01*
X61461107Y-45561000D01*
X61306357Y-45530219D01*
X61160585Y-45469838D01*
X61029389Y-45382176D01*
X60917824Y-45270611D01*
X60830162Y-45139415D01*
X60769781Y-44993643D01*
X60739000Y-44838893D01*
X60739000Y-44681107D01*
X60769781Y-44526357D01*
X60830162Y-44380585D01*
X60917824Y-44249389D01*
X61029389Y-44137824D01*
X61160585Y-44050162D01*
X61306357Y-43989781D01*
X61461107Y-43959000D01*
X61618893Y-43959000D01*
X61773643Y-43989781D01*
X61773643Y-43989781D01*
G37*
G36*
X66853643Y-43989781D02*
X66999415Y-44050162D01*
X67130611Y-44137824D01*
X67242176Y-44249389D01*
X67329838Y-44380585D01*
X67390219Y-44526357D01*
X67421000Y-44681107D01*
X67421000Y-44838893D01*
X67390219Y-44993643D01*
X67329838Y-45139415D01*
X67242176Y-45270611D01*
X67130611Y-45382176D01*
X66999415Y-45469838D01*
X66853643Y-45530219D01*
X66698893Y-45561000D01*
X66541107Y-45561000D01*
X66386357Y-45530219D01*
X66240585Y-45469838D01*
X66109389Y-45382176D01*
X65997824Y-45270611D01*
X65910162Y-45139415D01*
X65849781Y-44993643D01*
X65819000Y-44838893D01*
X65819000Y-44681107D01*
X65849781Y-44526357D01*
X65910162Y-44380585D01*
X65997824Y-44249389D01*
X66109389Y-44137824D01*
X66240585Y-44050162D01*
X66386357Y-43989781D01*
X66541107Y-43959000D01*
X66698893Y-43959000D01*
X66853643Y-43989781D01*
X66853643Y-43989781D01*
G37*
G36*
X71933643Y-43989781D02*
X72079415Y-44050162D01*
X72210611Y-44137824D01*
X72322176Y-44249389D01*
X72409838Y-44380585D01*
X72470219Y-44526357D01*
X72501000Y-44681107D01*
X72501000Y-44838893D01*
X72470219Y-44993643D01*
X72409838Y-45139415D01*
X72322176Y-45270611D01*
X72210611Y-45382176D01*
X72079415Y-45469838D01*
X71933643Y-45530219D01*
X71778893Y-45561000D01*
X71621107Y-45561000D01*
X71466357Y-45530219D01*
X71320585Y-45469838D01*
X71189389Y-45382176D01*
X71077824Y-45270611D01*
X70990162Y-45139415D01*
X70929781Y-44993643D01*
X70899000Y-44838893D01*
X70899000Y-44681107D01*
X70929781Y-44526357D01*
X70990162Y-44380585D01*
X71077824Y-44249389D01*
X71189389Y-44137824D01*
X71320585Y-44050162D01*
X71466357Y-43989781D01*
X71621107Y-43959000D01*
X71778893Y-43959000D01*
X71933643Y-43989781D01*
X71933643Y-43989781D01*
G37*
G36*
X69393643Y-43989781D02*
X69539415Y-44050162D01*
X69670611Y-44137824D01*
X69782176Y-44249389D01*
X69869838Y-44380585D01*
X69930219Y-44526357D01*
X69961000Y-44681107D01*
X69961000Y-44838893D01*
X69930219Y-44993643D01*
X69869838Y-45139415D01*
X69782176Y-45270611D01*
X69670611Y-45382176D01*
X69539415Y-45469838D01*
X69393643Y-45530219D01*
X69238893Y-45561000D01*
X69081107Y-45561000D01*
X68926357Y-45530219D01*
X68780585Y-45469838D01*
X68649389Y-45382176D01*
X68537824Y-45270611D01*
X68450162Y-45139415D01*
X68389781Y-44993643D01*
X68359000Y-44838893D01*
X68359000Y-44681107D01*
X68389781Y-44526357D01*
X68450162Y-44380585D01*
X68537824Y-44249389D01*
X68649389Y-44137824D01*
X68780585Y-44050162D01*
X68926357Y-43989781D01*
X69081107Y-43959000D01*
X69238893Y-43959000D01*
X69393643Y-43989781D01*
X69393643Y-43989781D01*
G37*
G36*
X64313643Y-43989781D02*
X64459415Y-44050162D01*
X64590611Y-44137824D01*
X64702176Y-44249389D01*
X64789838Y-44380585D01*
X64850219Y-44526357D01*
X64881000Y-44681107D01*
X64881000Y-44838893D01*
X64850219Y-44993643D01*
X64789838Y-45139415D01*
X64702176Y-45270611D01*
X64590611Y-45382176D01*
X64459415Y-45469838D01*
X64313643Y-45530219D01*
X64158893Y-45561000D01*
X64001107Y-45561000D01*
X63846357Y-45530219D01*
X63700585Y-45469838D01*
X63569389Y-45382176D01*
X63457824Y-45270611D01*
X63370162Y-45139415D01*
X63309781Y-44993643D01*
X63279000Y-44838893D01*
X63279000Y-44681107D01*
X63309781Y-44526357D01*
X63370162Y-44380585D01*
X63457824Y-44249389D01*
X63569389Y-44137824D01*
X63700585Y-44050162D01*
X63846357Y-43989781D01*
X64001107Y-43959000D01*
X64158893Y-43959000D01*
X64313643Y-43989781D01*
X64313643Y-43989781D01*
G37*
M02*
