G04 #@! TF.GenerationSoftware,KiCad,Pcbnew,5.0.1+dfsg1-3*
G04 #@! TF.CreationDate,2018-12-18T12:42:31-03:00*
G04 #@! TF.ProjectId,Control-Temp-Dysplay,436F6E74726F6C2D54656D702D447973,rev?*
G04 #@! TF.SameCoordinates,Original*
G04 #@! TF.FileFunction,Legend,Top*
G04 #@! TF.FilePolarity,Positive*
%FSLAX46Y46*%
G04 Gerber Fmt 4.6, Leading zero omitted, Abs format (unit mm)*
G04 Created by KiCad (PCBNEW 5.0.1+dfsg1-3) date mar 18 dic 2018 12:42:31 -03*
%MOMM*%
%LPD*%
G01*
G04 APERTURE LIST*
%ADD10C,0.120000*%
%ADD11C,0.150000*%
G04 APERTURE END LIST*
D10*
G04 #@! TO.C,10nF1*
X102470000Y-50355000D02*
X99630000Y-50355000D01*
X99630000Y-50355000D02*
X99630000Y-54395000D01*
X99630000Y-54395000D02*
X102470000Y-54395000D01*
X102470000Y-54395000D02*
X102470000Y-50355000D01*
X101050000Y-49665000D02*
X101050000Y-50355000D01*
X101050000Y-55085000D02*
X101050000Y-54395000D01*
G04 #@! TO.C,10uF1*
X48045000Y-51750000D02*
G75*
G03X48045000Y-51750000I-2120000J0D01*
G01*
X45085000Y-51750000D02*
X43845000Y-51750000D01*
X48005000Y-51750000D02*
X46765000Y-51750000D01*
X45085000Y-51790000D02*
X43845000Y-51790000D01*
X48005000Y-51790000D02*
X46765000Y-51790000D01*
X45085000Y-51830000D02*
X43846000Y-51830000D01*
X48004000Y-51830000D02*
X46765000Y-51830000D01*
X48002000Y-51870000D02*
X46765000Y-51870000D01*
X45085000Y-51870000D02*
X43848000Y-51870000D01*
X47999000Y-51910000D02*
X46765000Y-51910000D01*
X45085000Y-51910000D02*
X43851000Y-51910000D01*
X47996000Y-51950000D02*
X46765000Y-51950000D01*
X45085000Y-51950000D02*
X43854000Y-51950000D01*
X47992000Y-51990000D02*
X46765000Y-51990000D01*
X45085000Y-51990000D02*
X43858000Y-51990000D01*
X47987000Y-52030000D02*
X46765000Y-52030000D01*
X45085000Y-52030000D02*
X43863000Y-52030000D01*
X47981000Y-52070000D02*
X46765000Y-52070000D01*
X45085000Y-52070000D02*
X43869000Y-52070000D01*
X47975000Y-52110000D02*
X46765000Y-52110000D01*
X45085000Y-52110000D02*
X43875000Y-52110000D01*
X47967000Y-52150000D02*
X46765000Y-52150000D01*
X45085000Y-52150000D02*
X43883000Y-52150000D01*
X47959000Y-52190000D02*
X46765000Y-52190000D01*
X45085000Y-52190000D02*
X43891000Y-52190000D01*
X47950000Y-52230000D02*
X46765000Y-52230000D01*
X45085000Y-52230000D02*
X43900000Y-52230000D01*
X47941000Y-52270000D02*
X46765000Y-52270000D01*
X45085000Y-52270000D02*
X43909000Y-52270000D01*
X47930000Y-52310000D02*
X46765000Y-52310000D01*
X45085000Y-52310000D02*
X43920000Y-52310000D01*
X47919000Y-52350000D02*
X46765000Y-52350000D01*
X45085000Y-52350000D02*
X43931000Y-52350000D01*
X47907000Y-52390000D02*
X46765000Y-52390000D01*
X45085000Y-52390000D02*
X43943000Y-52390000D01*
X47893000Y-52430000D02*
X46765000Y-52430000D01*
X45085000Y-52430000D02*
X43957000Y-52430000D01*
X47879000Y-52471000D02*
X46765000Y-52471000D01*
X45085000Y-52471000D02*
X43971000Y-52471000D01*
X47865000Y-52511000D02*
X46765000Y-52511000D01*
X45085000Y-52511000D02*
X43985000Y-52511000D01*
X47849000Y-52551000D02*
X46765000Y-52551000D01*
X45085000Y-52551000D02*
X44001000Y-52551000D01*
X47832000Y-52591000D02*
X46765000Y-52591000D01*
X45085000Y-52591000D02*
X44018000Y-52591000D01*
X47814000Y-52631000D02*
X46765000Y-52631000D01*
X45085000Y-52631000D02*
X44036000Y-52631000D01*
X47795000Y-52671000D02*
X46765000Y-52671000D01*
X45085000Y-52671000D02*
X44055000Y-52671000D01*
X47776000Y-52711000D02*
X46765000Y-52711000D01*
X45085000Y-52711000D02*
X44074000Y-52711000D01*
X47755000Y-52751000D02*
X46765000Y-52751000D01*
X45085000Y-52751000D02*
X44095000Y-52751000D01*
X47733000Y-52791000D02*
X46765000Y-52791000D01*
X45085000Y-52791000D02*
X44117000Y-52791000D01*
X47710000Y-52831000D02*
X46765000Y-52831000D01*
X45085000Y-52831000D02*
X44140000Y-52831000D01*
X47685000Y-52871000D02*
X46765000Y-52871000D01*
X45085000Y-52871000D02*
X44165000Y-52871000D01*
X47660000Y-52911000D02*
X46765000Y-52911000D01*
X45085000Y-52911000D02*
X44190000Y-52911000D01*
X47633000Y-52951000D02*
X46765000Y-52951000D01*
X45085000Y-52951000D02*
X44217000Y-52951000D01*
X47605000Y-52991000D02*
X46765000Y-52991000D01*
X45085000Y-52991000D02*
X44245000Y-52991000D01*
X47575000Y-53031000D02*
X46765000Y-53031000D01*
X45085000Y-53031000D02*
X44275000Y-53031000D01*
X47544000Y-53071000D02*
X46765000Y-53071000D01*
X45085000Y-53071000D02*
X44306000Y-53071000D01*
X47512000Y-53111000D02*
X46765000Y-53111000D01*
X45085000Y-53111000D02*
X44338000Y-53111000D01*
X47477000Y-53151000D02*
X46765000Y-53151000D01*
X45085000Y-53151000D02*
X44373000Y-53151000D01*
X47441000Y-53191000D02*
X46765000Y-53191000D01*
X45085000Y-53191000D02*
X44409000Y-53191000D01*
X47403000Y-53231000D02*
X46765000Y-53231000D01*
X45085000Y-53231000D02*
X44447000Y-53231000D01*
X47363000Y-53271000D02*
X46765000Y-53271000D01*
X45085000Y-53271000D02*
X44487000Y-53271000D01*
X47321000Y-53311000D02*
X46765000Y-53311000D01*
X45085000Y-53311000D02*
X44529000Y-53311000D01*
X47276000Y-53351000D02*
X44574000Y-53351000D01*
X47229000Y-53391000D02*
X44621000Y-53391000D01*
X47179000Y-53431000D02*
X44671000Y-53431000D01*
X47125000Y-53471000D02*
X44725000Y-53471000D01*
X47067000Y-53511000D02*
X44783000Y-53511000D01*
X47005000Y-53551000D02*
X44845000Y-53551000D01*
X46938000Y-53591000D02*
X44912000Y-53591000D01*
X46865000Y-53631000D02*
X44985000Y-53631000D01*
X46784000Y-53671000D02*
X45066000Y-53671000D01*
X46693000Y-53711000D02*
X45157000Y-53711000D01*
X46589000Y-53751000D02*
X45261000Y-53751000D01*
X46462000Y-53791000D02*
X45388000Y-53791000D01*
X46295000Y-53831000D02*
X45555000Y-53831000D01*
X47120000Y-49480199D02*
X47120000Y-49880199D01*
X47320000Y-49680199D02*
X46920000Y-49680199D01*
G04 #@! TO.C,DISP1*
X129000000Y-62250000D02*
X131000000Y-62250000D01*
X161620000Y-42760000D02*
X111080000Y-42760000D01*
X161620000Y-62000000D02*
X161620000Y-42760000D01*
X111080000Y-62000000D02*
X161620000Y-62000000D01*
X111080000Y-62000000D02*
X111080000Y-42760000D01*
G04 #@! TO.C,DISP2*
X40080000Y-62000000D02*
X40080000Y-42760000D01*
X40080000Y-62000000D02*
X90620000Y-62000000D01*
X90620000Y-62000000D02*
X90620000Y-42760000D01*
X90620000Y-42760000D02*
X40080000Y-42760000D01*
X58000000Y-62250000D02*
X60000000Y-62250000D01*
G04 #@! TO.C,J1*
X34905000Y-55430000D02*
X32245000Y-55430000D01*
X34905000Y-55430000D02*
X34905000Y-45210000D01*
X34905000Y-45210000D02*
X32245000Y-45210000D01*
X32245000Y-55430000D02*
X32245000Y-45210000D01*
X32245000Y-58030000D02*
X32245000Y-56700000D01*
X33575000Y-58030000D02*
X32245000Y-58030000D01*
G04 #@! TO.C,J2*
X171475000Y-59780000D02*
X170145000Y-59780000D01*
X170145000Y-59780000D02*
X170145000Y-58450000D01*
X170145000Y-57180000D02*
X170145000Y-46960000D01*
X172805000Y-46960000D02*
X170145000Y-46960000D01*
X172805000Y-57180000D02*
X172805000Y-46960000D01*
X172805000Y-57180000D02*
X170145000Y-57180000D01*
G04 #@! TO.C,R1*
X160695000Y-47775000D02*
X157255000Y-47775000D01*
X157255000Y-47775000D02*
X157255000Y-57015000D01*
X157255000Y-57015000D02*
X160695000Y-57015000D01*
X160695000Y-57015000D02*
X160695000Y-47775000D01*
X158975000Y-45815000D02*
X158975000Y-47775000D01*
X158975000Y-58975000D02*
X158975000Y-57015000D01*
G04 #@! TO.C,10nF1*
D11*
X103922380Y-53922619D02*
X103922380Y-54494047D01*
X103922380Y-54208333D02*
X102922380Y-54208333D01*
X103065238Y-54303571D01*
X103160476Y-54398809D01*
X103208095Y-54494047D01*
X102922380Y-53303571D02*
X102922380Y-53208333D01*
X102970000Y-53113095D01*
X103017619Y-53065476D01*
X103112857Y-53017857D01*
X103303333Y-52970238D01*
X103541428Y-52970238D01*
X103731904Y-53017857D01*
X103827142Y-53065476D01*
X103874761Y-53113095D01*
X103922380Y-53208333D01*
X103922380Y-53303571D01*
X103874761Y-53398809D01*
X103827142Y-53446428D01*
X103731904Y-53494047D01*
X103541428Y-53541666D01*
X103303333Y-53541666D01*
X103112857Y-53494047D01*
X103017619Y-53446428D01*
X102970000Y-53398809D01*
X102922380Y-53303571D01*
X103255714Y-52541666D02*
X103922380Y-52541666D01*
X103350952Y-52541666D02*
X103303333Y-52494047D01*
X103255714Y-52398809D01*
X103255714Y-52255952D01*
X103303333Y-52160714D01*
X103398571Y-52113095D01*
X103922380Y-52113095D01*
X103398571Y-51303571D02*
X103398571Y-51636904D01*
X103922380Y-51636904D02*
X102922380Y-51636904D01*
X102922380Y-51160714D01*
X103922380Y-50255952D02*
X103922380Y-50827380D01*
X103922380Y-50541666D02*
X102922380Y-50541666D01*
X103065238Y-50636904D01*
X103160476Y-50732142D01*
X103208095Y-50827380D01*
G04 #@! TO.C,10uF1*
X49627380Y-53297619D02*
X49627380Y-53869047D01*
X49627380Y-53583333D02*
X48627380Y-53583333D01*
X48770238Y-53678571D01*
X48865476Y-53773809D01*
X48913095Y-53869047D01*
X48627380Y-52678571D02*
X48627380Y-52583333D01*
X48675000Y-52488095D01*
X48722619Y-52440476D01*
X48817857Y-52392857D01*
X49008333Y-52345238D01*
X49246428Y-52345238D01*
X49436904Y-52392857D01*
X49532142Y-52440476D01*
X49579761Y-52488095D01*
X49627380Y-52583333D01*
X49627380Y-52678571D01*
X49579761Y-52773809D01*
X49532142Y-52821428D01*
X49436904Y-52869047D01*
X49246428Y-52916666D01*
X49008333Y-52916666D01*
X48817857Y-52869047D01*
X48722619Y-52821428D01*
X48675000Y-52773809D01*
X48627380Y-52678571D01*
X48960714Y-51488095D02*
X49627380Y-51488095D01*
X48960714Y-51916666D02*
X49484523Y-51916666D01*
X49579761Y-51869047D01*
X49627380Y-51773809D01*
X49627380Y-51630952D01*
X49579761Y-51535714D01*
X49532142Y-51488095D01*
X49103571Y-50678571D02*
X49103571Y-51011904D01*
X49627380Y-51011904D02*
X48627380Y-51011904D01*
X48627380Y-50535714D01*
X49627380Y-49630952D02*
X49627380Y-50202380D01*
X49627380Y-49916666D02*
X48627380Y-49916666D01*
X48770238Y-50011904D01*
X48865476Y-50107142D01*
X48913095Y-50202380D01*
G04 #@! TO.C,DISP1*
X110302380Y-62392380D02*
X109302380Y-62392380D01*
X109302380Y-62154285D01*
X109350000Y-62011428D01*
X109445238Y-61916190D01*
X109540476Y-61868571D01*
X109730952Y-61820952D01*
X109873809Y-61820952D01*
X110064285Y-61868571D01*
X110159523Y-61916190D01*
X110254761Y-62011428D01*
X110302380Y-62154285D01*
X110302380Y-62392380D01*
X110302380Y-61392380D02*
X109302380Y-61392380D01*
X110254761Y-60963809D02*
X110302380Y-60820952D01*
X110302380Y-60582857D01*
X110254761Y-60487619D01*
X110207142Y-60440000D01*
X110111904Y-60392380D01*
X110016666Y-60392380D01*
X109921428Y-60440000D01*
X109873809Y-60487619D01*
X109826190Y-60582857D01*
X109778571Y-60773333D01*
X109730952Y-60868571D01*
X109683333Y-60916190D01*
X109588095Y-60963809D01*
X109492857Y-60963809D01*
X109397619Y-60916190D01*
X109350000Y-60868571D01*
X109302380Y-60773333D01*
X109302380Y-60535238D01*
X109350000Y-60392380D01*
X110302380Y-59963809D02*
X109302380Y-59963809D01*
X109302380Y-59582857D01*
X109350000Y-59487619D01*
X109397619Y-59440000D01*
X109492857Y-59392380D01*
X109635714Y-59392380D01*
X109730952Y-59440000D01*
X109778571Y-59487619D01*
X109826190Y-59582857D01*
X109826190Y-59963809D01*
X110302380Y-58440000D02*
X110302380Y-59011428D01*
X110302380Y-58725714D02*
X109302380Y-58725714D01*
X109445238Y-58820952D01*
X109540476Y-58916190D01*
X109588095Y-59011428D01*
G04 #@! TO.C,DISP2*
X39302380Y-62392380D02*
X38302380Y-62392380D01*
X38302380Y-62154285D01*
X38350000Y-62011428D01*
X38445238Y-61916190D01*
X38540476Y-61868571D01*
X38730952Y-61820952D01*
X38873809Y-61820952D01*
X39064285Y-61868571D01*
X39159523Y-61916190D01*
X39254761Y-62011428D01*
X39302380Y-62154285D01*
X39302380Y-62392380D01*
X39302380Y-61392380D02*
X38302380Y-61392380D01*
X39254761Y-60963809D02*
X39302380Y-60820952D01*
X39302380Y-60582857D01*
X39254761Y-60487619D01*
X39207142Y-60440000D01*
X39111904Y-60392380D01*
X39016666Y-60392380D01*
X38921428Y-60440000D01*
X38873809Y-60487619D01*
X38826190Y-60582857D01*
X38778571Y-60773333D01*
X38730952Y-60868571D01*
X38683333Y-60916190D01*
X38588095Y-60963809D01*
X38492857Y-60963809D01*
X38397619Y-60916190D01*
X38350000Y-60868571D01*
X38302380Y-60773333D01*
X38302380Y-60535238D01*
X38350000Y-60392380D01*
X39302380Y-59963809D02*
X38302380Y-59963809D01*
X38302380Y-59582857D01*
X38350000Y-59487619D01*
X38397619Y-59440000D01*
X38492857Y-59392380D01*
X38635714Y-59392380D01*
X38730952Y-59440000D01*
X38778571Y-59487619D01*
X38826190Y-59582857D01*
X38826190Y-59963809D01*
X38397619Y-59011428D02*
X38350000Y-58963809D01*
X38302380Y-58868571D01*
X38302380Y-58630476D01*
X38350000Y-58535238D01*
X38397619Y-58487619D01*
X38492857Y-58440000D01*
X38588095Y-58440000D01*
X38730952Y-58487619D01*
X39302380Y-59059047D01*
X39302380Y-58440000D01*
G04 #@! TO.C,J1*
X33241666Y-58922380D02*
X33241666Y-59636666D01*
X33194047Y-59779523D01*
X33098809Y-59874761D01*
X32955952Y-59922380D01*
X32860714Y-59922380D01*
X34241666Y-59922380D02*
X33670238Y-59922380D01*
X33955952Y-59922380D02*
X33955952Y-58922380D01*
X33860714Y-59065238D01*
X33765476Y-59160476D01*
X33670238Y-59208095D01*
G04 #@! TO.C,J2*
X171141666Y-60672380D02*
X171141666Y-61386666D01*
X171094047Y-61529523D01*
X170998809Y-61624761D01*
X170855952Y-61672380D01*
X170760714Y-61672380D01*
X171570238Y-60767619D02*
X171617857Y-60720000D01*
X171713095Y-60672380D01*
X171951190Y-60672380D01*
X172046428Y-60720000D01*
X172094047Y-60767619D01*
X172141666Y-60862857D01*
X172141666Y-60958095D01*
X172094047Y-61100952D01*
X171522619Y-61672380D01*
X172141666Y-61672380D01*
G04 #@! TO.C,R1*
X162147380Y-52561666D02*
X161671190Y-52895000D01*
X162147380Y-53133095D02*
X161147380Y-53133095D01*
X161147380Y-52752142D01*
X161195000Y-52656904D01*
X161242619Y-52609285D01*
X161337857Y-52561666D01*
X161480714Y-52561666D01*
X161575952Y-52609285D01*
X161623571Y-52656904D01*
X161671190Y-52752142D01*
X161671190Y-53133095D01*
X162147380Y-51609285D02*
X162147380Y-52180714D01*
X162147380Y-51895000D02*
X161147380Y-51895000D01*
X161290238Y-51990238D01*
X161385476Y-52085476D01*
X161433095Y-52180714D01*
G04 #@! TD*
M02*
