M48
;DRILL file {KiCad 5.0.1+dfsg1-3} date mar 18 dic 2018 12:45:33 -03
;FORMAT={3:3/ absolute / metric / suppress leading zeros}
FMAT,2
METRIC,TZ
T1C0.400
T2C0.600
T3C0.800
T4C1.000
%
G90
G05
M71
T1
X66575Y-63350
X76900Y-47200
X116975Y-53225
X117025Y-51300
X118950Y-56700
X119875Y-51825
X120425Y-57975
X125900Y-60100
X127175Y-41050
X127450Y-45275
X128000Y-60025
X131275Y-41150
X131500Y-61725
X131550Y-52625
X132200Y-53950
X133250Y-41125
X134150Y-46225
X136900Y-41100
X138850Y-62075
X140100Y-42675
X144525Y-53025
X146750Y-53400
X149525Y-53450
X153625Y-64250
X165485Y-48290
X173990Y-63500
T2
X45925Y-51000
X45925Y-52500
T3
X158975Y-44775
X158975Y-60015
X123150Y-48800
X123150Y-56420
X125690Y-48800
X125690Y-56420
X128230Y-48800
X128230Y-56420
X130770Y-48800
X130770Y-56420
X133310Y-48800
X133310Y-56420
X135850Y-48800
X135850Y-56420
X138390Y-48800
X138390Y-56420
X140930Y-48800
X140930Y-56420
X143470Y-48800
X143470Y-56420
X146010Y-48800
X146010Y-56420
X148550Y-48800
X148550Y-56420
X151090Y-48800
X151090Y-56420
X101050Y-48625
X101050Y-56125
T4
X33575Y-46540
X33575Y-49080
X33575Y-51620
X33575Y-54160
X33575Y-56700
X130000Y-44760
X130000Y-60000
X132540Y-44760
X132540Y-60000
X135080Y-44760
X135080Y-60000
X137620Y-44760
X137620Y-60000
X140160Y-44760
X140160Y-60000
X142700Y-44760
X142700Y-60000
X59000Y-44760
X59000Y-60000
X61540Y-44760
X61540Y-60000
X64080Y-44760
X64080Y-60000
X66620Y-44760
X66620Y-60000
X69160Y-44760
X69160Y-60000
X71700Y-44760
X71700Y-60000
X171475Y-48290
X171475Y-50830
X171475Y-53370
X171475Y-55910
X171475Y-58450
T0
M30
